<svg width="94" height="76" viewBox="0 0 94 76" fill="none" xmlns="http://www.w3.org/2000/svg">
<path d="M9.76515e-05 75.7002L31.7001 5.70019H41.6001L73.4001 75.7002H62.9001L34.6001 11.3002H38.6001L10.3001 75.7002H9.76515e-05ZM13.5001 58.2002L16.2001 50.2002H55.6001L58.5001 58.2002H13.5001ZM82.4423 75.7002V22.7002H92.0423V75.7002H82.4423ZM87.2423 12.5002C85.3756 12.5002 83.809 11.9002 82.5423 10.7002C81.3423 9.50019 80.7423 8.03353 80.7423 6.30019C80.7423 4.50019 81.3423 3.00019 82.5423 1.80019C83.809 0.600193 85.3756 0.000192404 87.2423 0.000192404C89.109 0.000192404 90.6423 0.600193 91.8423 1.80019C93.109 2.93352 93.7423 4.36686 93.7423 6.10019C93.7423 7.90019 93.1423 9.43353 91.9423 10.7002C90.7423 11.9002 89.1756 12.5002 87.2423 12.5002Z" fill="#5A3D8B"/>
</svg>
