<svg width="129" height="100" viewBox="0 0 129 100" fill="none" xmlns="http://www.w3.org/2000/svg">
<path d="M63.979 0.00145351C64.2112 0.00190867 64.4433 0.00236382 64.6825 0.00283276C68.0258 0.0138798 71.2847 0.0979543 74.56 0.828577C74.762 0.871427 74.9639 0.914276 75.172 0.958425C88.4371 3.82342 100.606 11.5854 108.079 23.0263C112.772 30.3643 116.302 39.176 116.01 48.0214C116.241 48.0581 116.241 48.0581 116.477 48.0956C120.315 48.7732 123.518 50.8342 125.766 54.0112C127.233 56.3001 128.072 58.6615 128.068 61.38C128.071 61.6873 128.071 61.6873 128.073 62.0008C128.078 62.6741 128.079 63.3473 128.08 64.0206C128.081 64.4924 128.083 64.9642 128.085 65.4359C128.088 66.4239 128.089 67.4118 128.088 68.3998C128.088 69.6588 128.095 70.9177 128.104 72.1767C128.109 73.1512 128.11 74.1257 128.11 75.1002C128.111 75.564 128.113 76.0278 128.117 76.4915C128.149 80.686 127.411 84.5908 124.453 87.8024C121.463 90.58 118.106 92.0429 114.056 92.0521C113.801 92.0538 113.545 92.0554 113.282 92.0571C112.744 92.0597 112.206 92.0608 111.668 92.0608C110.845 92.0619 110.021 92.071 109.198 92.0804C108.674 92.0819 108.15 92.0828 107.627 92.0833C107.381 92.0869 107.135 92.0905 106.881 92.0942C106.652 92.0927 106.423 92.0911 106.186 92.0895C105.985 92.0902 105.784 92.091 105.577 92.0917C104.795 91.9173 104.523 91.5907 104.025 90.9694C103.899 90.2556 103.899 90.2556 103.898 89.4125C103.896 89.0924 103.893 88.7723 103.89 88.4425C103.892 88.0881 103.894 87.7337 103.896 87.3794C103.895 87.0056 103.893 86.6318 103.891 86.258C103.887 85.4522 103.886 84.6465 103.888 83.8407C103.891 82.5603 103.886 81.28 103.881 79.9996C103.874 77.9669 103.871 75.9342 103.87 73.9015C103.868 70.282 103.861 66.6624 103.848 63.0429C103.844 61.7769 103.843 60.5109 103.844 59.2449C103.941 50.8306 103.941 50.8306 102.62 42.5593C102.556 42.3038 102.491 42.0482 102.425 41.785C101.78 39.3443 100.88 37.056 99.7797 34.7875C99.6992 34.6196 99.6188 34.4518 99.5359 34.2789C95.048 25.0547 86.904 17.9967 77.2599 14.5776C67.234 11.1759 56.3787 11.6789 46.8272 16.3189C37.5427 20.9423 30.2173 28.7121 26.7696 38.5768C24.4327 45.5851 24.2975 52.5417 24.3018 59.86C24.3026 61.1394 24.2989 62.4187 24.2946 63.6981C24.283 67.3302 24.2769 70.9624 24.2753 74.5945C24.2743 76.613 24.2698 78.6313 24.2615 80.6497C24.2565 81.9214 24.2559 83.193 24.2586 84.4647C24.2592 85.2518 24.2557 86.0389 24.2511 86.826C24.2497 87.1908 24.2501 87.5556 24.2523 87.9204C24.2551 88.4178 24.2512 88.9152 24.2469 89.4125C24.2466 89.6908 24.2463 89.969 24.2461 90.2556C24.0919 91.1329 23.8155 91.4271 23.1219 91.9682C22.5764 92.0951 22.5764 92.0951 21.9787 92.0975C21.7535 92.1006 21.5283 92.1038 21.2962 92.107C20.933 92.104 20.933 92.104 20.5624 92.1009C20.1845 92.1023 20.1845 92.1023 19.7989 92.1038C19.2649 92.1045 18.7309 92.1026 18.197 92.0984C17.3886 92.0931 16.5807 92.0984 15.7723 92.1048C10.7722 92.1117 10.7722 92.1117 8.38958 90.9694C8.11501 90.8465 7.84045 90.7235 7.55757 90.5968C3.90813 88.5624 1.71161 85.6773 0.388236 81.6955C0.126272 80.6381 0.0739276 79.7041 0.0729752 78.6216C0.0708968 78.4179 0.0688184 78.2142 0.0666771 78.0044C0.0606891 77.3347 0.0584719 76.6651 0.0568203 75.9954C0.0545781 75.5254 0.0522965 75.0554 0.049985 74.5854C0.0458741 73.6006 0.0439499 72.6158 0.0432258 71.631C0.0418868 70.3788 0.0324972 69.1267 0.0210662 67.8745C0.0135786 66.9031 0.0118282 65.9319 0.011579 64.9605C0.0105392 64.4994 0.00747596 64.0383 0.00221372 63.5773C-0.0402668 59.5315 0.511525 56.2567 3.14588 53.0154C3.30231 52.8075 3.45875 52.5995 3.61992 52.3853C5.76396 49.8587 8.9323 48.5195 12.1351 48.0214C12.1302 47.8388 12.1253 47.6562 12.1203 47.468C12.0927 45.6405 12.2393 43.9206 12.5564 42.1223C12.6018 41.862 12.6471 41.6016 12.6938 41.3334C14.8079 29.6253 21.2916 18.951 30.6129 11.5656C30.851 11.3702 31.0892 11.1748 31.3346 10.9735C38.1025 5.55058 46.5259 1.92501 55.0834 0.578879C55.3435 0.535325 55.6035 0.491772 55.8714 0.446898C58.578 0.0339557 61.246 -0.00964575 63.979 0.00145351ZM43.0978 8.8189C42.9218 8.89937 42.7458 8.97984 42.5644 9.06275C37.9811 11.1816 34.0406 14.1107 30.3632 17.5583C30.2399 17.6731 30.1166 17.7879 29.9896 17.9062C22.3562 25.0708 17.623 34.9037 16.38 45.2748C16.3644 45.7687 16.3583 46.2632 16.3644 46.7573C16.3695 47.1745 16.3747 47.5916 16.38 48.0214C17.616 48.0214 18.852 48.0214 20.1255 48.0214C20.2182 47.4395 20.3109 46.8575 20.4064 46.2579C22.4118 34.6371 28.0681 23.5676 37.8812 16.6357C44.8121 11.8536 52.8732 8.32047 61.4322 8.26879C61.7247 8.26613 61.7247 8.26613 62.0231 8.26341C70.1764 8.20606 70.1764 8.20606 73.5612 9.0686C73.7892 9.12497 74.0171 9.18134 74.2519 9.23941C82.1565 11.243 88.8732 14.9653 94.7857 20.5547C94.9904 20.7462 95.1951 20.9377 95.4061 21.135C102.098 27.5877 105.87 36.2531 107.52 45.2748C107.577 45.5738 107.633 45.8728 107.691 46.1809C107.805 46.7937 107.913 47.4074 108.02 48.0214C109.256 48.0214 110.492 48.0214 111.765 48.0214C112.192 39.348 108.061 29.7601 102.776 23.0517C102.673 22.92 102.57 22.7884 102.464 22.6527C94.5412 12.6585 83.001 6.06007 70.3151 4.45602C60.9056 3.40209 51.6992 4.85052 43.0978 8.8189ZM6.90211 55.2022C4.16369 58.2076 4.10484 61.7386 4.10274 65.59C4.10193 65.9383 4.10109 66.2865 4.10022 66.6348C4.09873 67.3626 4.09826 68.0904 4.09841 68.8183C4.09843 69.7428 4.09503 70.6672 4.09072 71.5917C4.08792 72.3107 4.08744 73.0296 4.08757 73.7486C4.08714 74.2525 4.08445 74.7565 4.08169 75.2604C4.09124 79.1541 4.59426 82.299 7.3303 85.2157C10.9826 88.5434 15.3492 87.9731 20.1255 87.9731C20.1255 76.1074 20.1255 64.2418 20.1255 52.0166C12.7938 51.7676 12.7938 51.7676 6.90211 55.2022ZM108.02 52.0166C108.02 63.8822 108.02 75.7479 108.02 87.9731C115.351 88.2221 115.351 88.2221 121.243 84.7875C123.982 81.782 124.04 78.251 124.043 74.3997C124.043 74.0514 124.044 73.7031 124.045 73.3549C124.047 72.627 124.047 71.8992 124.047 71.1714C124.047 70.2469 124.05 69.3224 124.055 68.398C124.057 67.679 124.058 66.96 124.058 66.241C124.058 65.7371 124.061 65.2332 124.064 64.7292C124.054 60.8356 123.551 57.6907 120.815 54.774C117.163 51.4462 112.796 52.0166 108.02 52.0166Z" fill="#5A3D8B"/>
<path d="M62.3198 52.2673C62.838 52.6686 63.3286 53.0793 63.818 53.5158C64.5764 53.1647 65.1985 52.7414 65.8624 52.2361C71.1446 48.5099 77.5698 47.3159 83.9347 48.1015C85.8705 48.4564 87.8942 49.1664 89.5371 50.2698C90.1242 51.1504 90.09 51.5254 90.0677 52.5638C90.0632 52.8352 90.0587 53.1065 90.054 53.3861C90.0482 53.5937 90.0424 53.8013 90.0365 54.0152C90.1825 54.01 90.3286 54.0048 90.4791 53.9994C91.143 53.9786 91.8069 53.9656 92.4711 53.9528C92.7009 53.9444 92.9307 53.9361 93.1675 53.9274C93.3896 53.9242 93.6117 53.921 93.8405 53.9177C94.0445 53.9124 94.2485 53.9072 94.4587 53.9018C95.2599 54.0607 95.5224 54.3805 96.0293 55.014C96.155 55.7269 96.155 55.7269 96.1561 56.5683C96.1603 57.0472 96.1603 57.0472 96.1646 57.5358C96.1627 57.8891 96.1607 58.2423 96.1585 58.5956C96.1599 58.9681 96.1616 59.3405 96.1638 59.713C96.1684 60.7241 96.1666 61.7352 96.1634 62.7464C96.1609 63.8044 96.1633 64.8623 96.1648 65.9202C96.1666 67.6969 96.1642 69.4735 96.1595 71.2502C96.1541 73.3046 96.1558 75.3589 96.1613 77.4133C96.1658 79.1768 96.1665 80.9403 96.1639 82.7038C96.1623 83.7572 96.1621 84.8106 96.1654 85.864C96.1683 86.8544 96.1663 87.8446 96.1605 88.835C96.1592 89.1986 96.1596 89.5621 96.1618 89.9257C96.1645 90.4217 96.1605 90.9178 96.1561 91.4138C96.1555 91.8303 96.1555 91.8303 96.155 92.2552C96.0004 93.132 95.7209 93.423 95.0305 93.9668C94.0858 94.2863 93.0898 94.2511 92.1002 94.2762C83.8268 94.5012 75.8652 96.2041 68.0955 98.9701C67.8162 99.0677 67.8162 99.0677 67.5313 99.1674C67.1837 99.2892 66.8369 99.4136 66.4912 99.541C64.9017 100.095 63.4311 100.192 61.837 99.5841C61.6166 99.5029 61.3962 99.4217 61.1691 99.3381C60.8194 99.2054 60.8194 99.2054 60.4627 99.07C52.6628 96.2519 44.5467 94.5347 36.2439 94.3236C34.9492 94.2824 33.8191 94.1886 32.6055 93.7171C32.0203 92.8393 32.0425 92.4828 32.0394 91.4438C32.0372 91.1249 32.0351 90.8059 32.0329 90.4773C32.0331 90.1231 32.0333 89.769 32.0336 89.4148C32.0321 89.0424 32.0304 88.67 32.0285 88.2975C32.0241 87.2853 32.0229 86.2732 32.0226 85.261C32.0221 84.4164 32.0203 83.5719 32.0185 82.7273C32.0145 80.7351 32.0132 78.7429 32.0136 76.7507C32.0139 74.6944 32.0086 72.6383 32.0007 70.582C31.9942 68.8175 31.9915 67.053 31.9918 65.2884C31.992 64.2341 31.9905 63.1799 31.9853 62.1256C31.9804 61.1343 31.9804 60.143 31.984 59.1516C31.9845 58.7877 31.9834 58.4237 31.9803 58.0597C31.9765 57.5631 31.9794 57.0665 31.9827 56.57C31.9824 56.292 31.9821 56.014 31.9818 55.7276C32.1348 54.8495 32.4092 54.555 33.1049 54.0152C33.6768 53.9018 33.6768 53.9018 34.2949 53.9177C34.6281 53.9225 34.6281 53.9225 34.9679 53.9274C35.3127 53.94 35.3127 53.94 35.6644 53.9528C35.898 53.9573 36.1317 53.9618 36.3725 53.9664C36.9482 53.9782 37.5234 53.9946 38.0989 54.0152C38.0873 53.8105 38.0758 53.6058 38.0638 53.3949C38.0503 52.9912 38.0503 52.9912 38.0365 52.5795C38.0249 52.3129 38.0133 52.0464 38.0014 51.7718C38.1218 50.8424 38.3739 50.5929 39.0977 50.0201C46.0036 45.8505 56.0551 47.7323 62.3198 52.2673ZM42.0941 53.2661C42.0941 62.3301 42.0941 71.3942 42.0941 80.7329C43.4537 80.4857 43.4537 80.4857 44.8408 80.2335C50.6724 79.7301 55.9546 80.742 61.0352 83.6951C61.5432 84.0179 61.5432 84.0179 62.0701 83.9789C62.0932 80.6515 62.111 77.3241 62.1219 73.9966C62.1271 72.4515 62.1341 70.9064 62.1455 69.3614C62.1563 67.8703 62.1623 66.3792 62.1649 64.8881C62.1667 64.3192 62.1703 63.7503 62.1757 63.1815C62.183 62.3846 62.184 61.588 62.1835 60.7911C62.1871 60.556 62.1907 60.3209 62.1944 60.0786C62.1856 58.6781 62.0113 57.8711 61.0713 56.7619C55.9623 52.2452 48.389 50.9056 42.0941 53.2661ZM66.5647 57.2613C66.1269 57.9846 66.0032 58.5157 66.0052 59.3566C66.0046 59.5743 66.0039 59.7921 66.0032 60.0165C66.005 60.2534 66.0068 60.4903 66.0086 60.7344C66.0085 60.9854 66.0085 61.2364 66.0084 61.495C66.0087 62.3245 66.0126 63.1541 66.0165 63.9836C66.0175 64.5588 66.0182 65.134 66.0187 65.7092C66.0206 67.2231 66.0255 68.737 66.031 70.2509C66.0361 71.7958 66.0384 73.3406 66.0409 74.8855C66.0463 77.9166 66.0548 80.9478 66.0653 83.9789C67.0714 83.5842 68.0294 83.1299 68.9993 82.6524C72.529 80.9626 76.0641 80.1889 79.9705 80.1866C80.2503 80.1836 80.5302 80.1805 80.8186 80.1774C81.2345 80.1767 81.2345 80.1767 81.6589 80.1759C81.9069 80.1749 82.155 80.1739 82.4106 80.1728C83.6323 80.2566 84.8365 80.5138 86.0413 80.7329C86.0413 71.6688 86.0413 62.6048 86.0413 53.2661C79.3036 51.193 71.8195 52.1486 66.5647 57.2613ZM36.1013 58.0104C36.1013 68.5576 36.1013 79.1048 36.1013 89.9717C38.2438 90.1365 40.3862 90.3013 42.5935 90.4711C43.7315 90.6003 44.8509 90.7327 45.9801 90.908C46.2561 90.9503 46.5321 90.9925 46.8164 91.0361C52.1087 91.8839 57.7819 93.1024 62.7124 95.2447C64.5152 95.8999 66.549 94.9246 68.2502 94.3102C72.7997 92.7396 77.4598 91.6174 82.2178 90.8924C82.4568 90.8557 82.6959 90.8189 82.9423 90.781C85.9626 90.3591 88.9863 90.2061 92.0341 89.9717C92.0341 79.4244 92.0341 68.8772 92.0341 58.0104C91.3749 58.0104 90.7157 58.0104 90.0365 58.0104C90.0356 58.2178 90.0356 58.2178 90.0347 58.4294C90.0199 61.793 90.001 65.1564 89.9776 68.5199C89.9664 70.1464 89.9566 71.773 89.95 73.3995C89.9435 74.9684 89.9334 76.5372 89.9208 78.106C89.9166 78.7054 89.9138 79.3048 89.9122 79.9043C89.9098 80.742 89.9028 81.5795 89.8947 82.4172C89.8951 82.6666 89.8955 82.9161 89.8958 83.1731C89.8927 83.4011 89.8896 83.629 89.8863 83.8639C89.8852 84.062 89.884 84.2602 89.8829 84.4644C89.761 85.1155 89.5659 85.3354 89.0377 85.7268C87.7016 85.9212 86.8995 85.6989 85.6823 85.1338C81.3776 83.2332 76.666 83.9633 72.379 85.5327C70.8088 86.1529 69.4401 87.0017 68.0629 87.9741C67.8991 88.0816 67.7352 88.1891 67.5664 88.2999C66.7461 88.8902 66.4334 89.4783 66.0809 90.393C65.7106 91.3189 65.6584 91.4244 64.7076 91.8912C63.7643 91.974 63.3885 91.9145 62.5695 91.4699C62.271 90.9451 62.271 90.9451 62.0389 90.315C60.7715 87.5749 57.5022 86.2349 54.8249 85.1806C50.4518 83.6863 46.0041 83.5304 41.7605 85.4635C40.79 85.8477 40.1282 85.8767 39.0977 85.7268C38.5695 85.3354 38.3744 85.1155 38.2526 84.4644C38.2508 84.1671 38.2508 84.1671 38.2491 83.8639C38.2459 83.6359 38.2428 83.408 38.2396 83.1731C38.2399 82.9237 38.2403 82.6742 38.2407 82.4172C38.2381 82.154 38.2356 81.8909 38.233 81.6198C38.2254 80.7483 38.2231 79.8769 38.2208 79.0055C38.2166 78.4019 38.2121 77.7984 38.2073 77.1948C38.1954 75.605 38.188 74.0151 38.1814 72.4253C38.174 70.8034 38.1624 69.1816 38.1511 67.5599C38.1296 64.3767 38.1127 61.1936 38.0989 58.0104C37.4397 58.0104 36.7805 58.0104 36.1013 58.0104Z" fill="#5A3D8B"/>
<path d="M114.023 57.8848C114.188 57.8822 114.353 57.8796 114.523 57.877C115.279 58.078 115.545 58.3855 116.021 59.0084C116.119 59.7445 116.157 60.3872 116.15 61.123C116.152 61.3359 116.154 61.5487 116.155 61.7681C116.16 62.4713 116.157 63.1743 116.153 63.8775C116.154 64.3663 116.155 64.8552 116.156 65.344C116.158 66.3683 116.156 67.3926 116.151 68.4169C116.145 69.7302 116.149 71.0433 116.155 72.3566C116.158 73.3659 116.157 74.3753 116.154 75.3846C116.154 75.8689 116.155 76.3531 116.157 76.8373C116.159 77.5141 116.156 78.1905 116.15 78.8672C116.152 79.0675 116.154 79.2678 116.156 79.4742C116.142 80.3732 116.098 80.8802 115.545 81.6051C114.978 82.0119 114.712 82.1162 114.023 82.1054C113.858 82.108 113.694 82.1106 113.524 82.1132C112.767 81.9122 112.502 81.6047 112.026 80.9818C111.927 80.2457 111.889 79.603 111.896 78.8672C111.895 78.6543 111.893 78.4414 111.891 78.2221C111.887 77.5189 111.89 76.8159 111.893 76.1127C111.892 75.6239 111.891 75.135 111.89 74.6462C111.889 73.6219 111.891 72.5976 111.895 71.5733C111.901 70.26 111.898 68.9469 111.892 67.6336C111.888 66.6242 111.889 65.6149 111.892 64.6056C111.893 64.1213 111.892 63.6371 111.889 63.1529C111.887 62.4761 111.891 61.7997 111.896 61.123C111.894 60.9227 111.892 60.7224 111.89 60.516C111.904 59.617 111.948 59.1099 112.502 58.3851C113.068 57.9782 113.334 57.874 114.023 57.8848Z" fill="#5A3D8B"/>
<path d="M14.1404 57.8848C14.3052 57.8822 14.47 57.8796 14.6398 57.877C15.3967 58.078 15.662 58.3855 16.138 59.0084C16.2365 59.7445 16.2746 60.3872 16.2672 61.123C16.269 61.3359 16.2707 61.5487 16.2725 61.7681C16.2769 62.4713 16.274 63.1743 16.2706 63.8775C16.2713 64.3663 16.2723 64.8552 16.2735 65.344C16.275 66.3683 16.2729 67.3926 16.2682 68.4169C16.2625 69.7302 16.2658 71.0433 16.2718 72.3566C16.2754 73.3659 16.2742 74.3753 16.2716 75.3846C16.271 75.8689 16.2718 76.3531 16.2741 76.8373C16.2766 77.5141 16.2728 78.1905 16.2672 78.8672C16.2692 79.0675 16.2713 79.2678 16.2733 79.4742C16.2596 80.3732 16.2156 80.8802 15.6617 81.6051C15.0955 82.0119 14.8296 82.1162 14.1404 82.1054C13.9756 82.108 13.8108 82.1106 13.641 82.1132C12.8841 81.9122 12.6188 81.6047 12.1428 80.9818C12.0443 80.2457 12.0061 79.603 12.0135 78.8672C12.0118 78.6543 12.01 78.4414 12.0082 78.2221C12.0038 77.5189 12.0068 76.8159 12.0101 76.1127C12.0095 75.6239 12.0085 75.135 12.0072 74.6462C12.0058 73.6219 12.0079 72.5976 12.0126 71.5733C12.0183 70.26 12.015 68.9469 12.009 67.6336C12.0054 66.6242 12.0065 65.6149 12.0091 64.6056C12.0098 64.1213 12.009 63.6371 12.0067 63.1529C12.0041 62.4761 12.008 61.7997 12.0135 61.123C12.0115 60.9227 12.0095 60.7224 12.0074 60.516C12.0211 59.617 12.0652 59.1099 12.6191 58.3851C13.1852 57.9782 13.4511 57.874 14.1404 57.8848Z" fill="#5A3D8B"/>
</svg>
