<svg width="71" height="100" viewBox="0 0 71 100" fill="none" xmlns="http://www.w3.org/2000/svg">
<path d="M57.8645 100H12.5792C9.24302 100 6.04344 98.6747 3.68438 96.3156C1.32531 93.9566 0 90.757 0 87.4208V12.5793C0 9.24303 1.32531 6.04344 3.68438 3.68438C6.04344 1.32531 9.24302 0 12.5792 0H57.8645C61.2008 0 64.4004 1.32531 66.7594 3.68438C69.1185 6.04344 70.4438 9.24303 70.4438 12.5793V87.4208C70.4438 90.757 69.1185 93.9566 66.7594 96.3156C64.4004 98.6747 61.2008 100 57.8645 100ZM12.5792 5.0317C10.5775 5.0317 8.65776 5.82689 7.24232 7.24233C5.82688 8.65777 5.0317 10.5775 5.0317 12.5793V87.4208C5.0317 89.4225 5.82688 91.3422 7.24232 92.7577C8.65776 94.1731 10.5775 94.9683 12.5792 94.9683H57.8645C59.8663 94.9683 61.786 94.1731 63.2015 92.7577C64.6169 91.3422 65.4121 89.4225 65.4121 87.4208V12.5793C65.4121 10.5775 64.6169 8.65777 63.2015 7.24233C61.786 5.82689 59.8663 5.0317 57.8645 5.0317H12.5792Z" fill="#5A3D8B"/>
<path d="M47.8018 38.7145H22.6433C20.6415 38.7145 18.7218 37.9193 17.3063 36.5039C15.8909 35.0884 15.0957 33.1687 15.0957 31.1669V22.6433C15.0957 20.6415 15.8909 18.7218 17.3063 17.3063C18.7218 15.8909 20.6415 15.0957 22.6433 15.0957H47.8018C49.8035 15.0957 51.7232 15.8909 53.1387 17.3063C54.5541 18.7218 55.3493 20.6415 55.3493 22.6433V31.1669C55.3493 33.1687 54.5541 35.0884 53.1387 36.5039C51.7232 37.9193 49.8035 38.7145 47.8018 38.7145ZM22.6433 20.1274C21.976 20.1274 21.3361 20.3925 20.8643 20.8643C20.3925 21.3361 20.1274 21.976 20.1274 22.6433V31.1669C20.1274 31.8342 20.3925 32.4741 20.8643 32.9459C21.3361 33.4177 21.976 33.6828 22.6433 33.6828H47.8018C48.469 33.6828 49.1089 33.4177 49.5807 32.9459C50.0525 32.4741 50.3176 31.8342 50.3176 31.1669V22.6433C50.3176 21.976 50.0525 21.3361 49.5807 20.8643C49.1089 20.3925 48.469 20.1274 47.8018 20.1274H22.6433Z" fill="#5A3D8B"/>
<path d="M35.2191 51.2975C37.3033 51.2975 38.9929 49.608 38.9929 47.5238C38.9929 45.4396 37.3033 43.75 35.2191 43.75C33.1349 43.75 31.4453 45.4396 31.4453 47.5238C31.4453 49.608 33.1349 51.2975 35.2191 51.2975Z" fill="#5A3D8B"/>
<path d="M51.5746 51.2975C53.6588 51.2975 55.3483 49.608 55.3483 47.5238C55.3483 45.4396 53.6588 43.75 51.5746 43.75C49.4904 43.75 47.8008 45.4396 47.8008 47.5238C47.8008 49.608 49.4904 51.2975 51.5746 51.2975Z" fill="#5A3D8B"/>
<path d="M18.8695 51.2975C20.9537 51.2975 22.6433 49.608 22.6433 47.5238C22.6433 45.4396 20.9537 43.75 18.8695 43.75C16.7853 43.75 15.0957 45.4396 15.0957 47.5238C15.0957 49.608 16.7853 51.2975 18.8695 51.2975Z" fill="#5A3D8B"/>
<path d="M35.2191 68.1042C37.3033 68.1042 38.9929 66.4146 38.9929 64.3304C38.9929 62.2462 37.3033 60.5566 35.2191 60.5566C33.1349 60.5566 31.4453 62.2462 31.4453 64.3304C31.4453 66.4146 33.1349 68.1042 35.2191 68.1042Z" fill="#5A3D8B"/>
<path d="M51.5746 68.1042C53.6588 68.1042 55.3483 66.4146 55.3483 64.3304C55.3483 62.2462 53.6588 60.5566 51.5746 60.5566C49.4904 60.5566 47.8008 62.2462 47.8008 64.3304C47.8008 66.4146 49.4904 68.1042 51.5746 68.1042Z" fill="#5A3D8B"/>
<path d="M18.8695 68.1042C20.9537 68.1042 22.6433 66.4146 22.6433 64.3304C22.6433 62.2462 20.9537 60.5566 18.8695 60.5566C16.7853 60.5566 15.0957 62.2462 15.0957 64.3304C15.0957 66.4146 16.7853 68.1042 18.8695 68.1042Z" fill="#5A3D8B"/>
<path d="M51.5746 84.904C53.6588 84.904 55.3483 83.2144 55.3483 81.1302C55.3483 79.046 53.6588 77.3564 51.5746 77.3564C49.4904 77.3564 47.8008 79.046 47.8008 81.1302C47.8008 83.2144 49.4904 84.904 51.5746 84.904Z" fill="#5A3D8B"/>
<path d="M36.4704 83.6479H17.6116C16.9443 83.6479 16.3044 83.3829 15.8326 82.911C15.3608 82.4392 15.0957 81.7993 15.0957 81.1321C15.0957 80.4648 15.3608 79.8249 15.8326 79.3531C16.3044 78.8813 16.9443 78.6162 17.6116 78.6162H36.4502C37.1175 78.6162 37.7574 78.8813 38.2292 79.3531C38.701 79.8249 38.9661 80.4648 38.9661 81.1321C38.9661 81.7993 38.701 82.4392 38.2292 82.911C37.7574 83.3829 37.1175 83.6479 36.4502 83.6479H36.4704Z" fill="#5A3D8B"/>
</svg>
