<svg width="125" height="100" viewBox="0 0 125 100" fill="none" xmlns="http://www.w3.org/2000/svg">
<path d="M90.4827 35.9382C87.7547 35.9382 85.5105 35.0574 83.75 33.2958C81.9884 31.5341 81.1076 29.2899 81.1076 26.5631C81.1076 23.8351 81.9884 21.5909 83.75 19.8305C85.5105 18.0688 87.7547 17.188 90.4827 17.188C93.2095 17.188 95.4537 18.0688 97.2154 19.8305C98.977 21.5909 99.8578 23.8351 99.8578 26.5631C99.8578 29.2899 98.977 31.5341 97.2154 33.2958C95.4537 35.0574 93.2095 35.9382 90.4827 35.9382ZM34.232 35.9382C31.5052 35.9382 29.261 35.0574 27.4994 33.2958C25.7377 31.5341 24.8569 29.2899 24.8569 26.5631C24.8569 23.8351 25.7377 21.5909 27.4994 19.8305C29.261 18.0688 31.5052 17.188 34.232 17.188C36.96 17.188 39.2042 18.0688 40.9647 19.8305C42.7263 21.5909 43.6071 23.8351 43.6071 26.5631C43.6071 29.2899 42.7263 31.5341 40.9647 33.2958C39.2042 35.0574 36.96 35.9382 34.232 35.9382ZM62.3574 53.1244C59.6306 53.1244 57.3863 52.2442 55.6247 50.4838C53.8631 48.7222 52.9822 46.4773 52.9822 43.7493C52.9822 41.0225 53.8631 38.7783 55.6247 37.0167C57.3863 35.255 59.6306 34.3742 62.3574 34.3742C65.0841 34.3742 67.3284 35.255 69.09 37.0167C70.8517 38.7783 71.7325 41.0225 71.7325 43.7493C71.7325 46.4773 70.8517 48.7222 69.09 50.4838C67.3284 52.2442 65.0841 53.1244 62.3574 53.1244ZM62.3574 18.7502C59.6306 18.7502 57.3863 17.8694 55.6247 16.1078C53.8631 14.3461 52.9822 12.1019 52.9822 9.37512C52.9822 6.64833 53.8631 4.40411 55.6247 2.64246C57.3863 0.880821 59.6306 0 62.3574 0C65.0841 0 67.3284 0.880821 69.09 2.64246C70.8517 4.40411 71.7325 6.64833 71.7325 9.37512C71.7325 12.1019 70.8517 14.3461 69.09 16.1078C67.3284 17.8694 65.0841 18.7502 62.3574 18.7502ZM62.3647 100C60.3052 100 58.2333 99.8387 56.1491 99.5162C54.0662 99.1949 52.0448 98.7739 50.0849 98.2531V75.9224C50.0849 72.1824 51.2403 69.0106 53.551 66.4069C55.8617 63.802 58.7971 62.4995 62.3574 62.4995C65.9176 62.4995 68.853 63.802 71.1637 66.4069C73.4744 69.0106 74.6298 72.1824 74.6298 75.9224V98.2531C72.6699 98.7739 70.6504 99.1949 68.5711 99.5162C66.4931 99.8387 64.4243 100 62.3647 100ZM40.7098 94.9865C38.6749 94.1629 36.672 93.2372 34.701 92.2093C32.7313 91.1813 30.8903 90.0352 29.1779 88.7709C26.2024 86.7877 23.8653 84.1052 22.1664 80.7235C20.4663 77.343 19.6163 73.7637 19.6163 69.9856C19.6163 67.3401 19.3319 64.8342 18.7632 62.4681C18.1956 60.1033 17.1739 57.8806 15.6978 55.8001C14.6354 54.414 12.6516 52.3421 9.74628 49.5845C6.83975 46.827 4.19113 44.2454 1.80042 41.8399C0.60014 40.604 0 39.1396 0 37.4469C0 35.7542 0.610604 34.3182 1.83181 33.1388C3.15766 31.7945 4.63985 31.1224 6.27839 31.1224C7.91693 31.1224 9.35111 31.7847 10.5809 33.1093L34.6475 55.741C36.6061 57.6147 38.1061 59.83 39.1476 62.3869C40.1891 64.9438 40.7098 67.5857 40.7098 70.3124V94.9865ZM84.0049 94.9865V70.3715C84.0049 67.5807 84.6087 64.913 85.8164 62.3684C87.024 59.8238 88.6078 57.6326 90.5676 55.7946L114.228 33.113C115.481 31.9656 116.97 31.392 118.693 31.392C120.416 31.392 121.86 31.9742 123.025 33.1388C124.246 34.3613 124.857 35.8195 124.857 37.5134C124.857 39.2086 124.259 40.6612 123.062 41.8713C120.679 44.2226 118.012 46.7605 115.061 49.4848C112.109 52.2091 110.09 54.3124 109.006 55.7946C107.519 57.8701 106.496 60.0885 105.937 62.4497C105.378 64.8121 105.098 67.3419 105.098 70.0391C105.098 73.8013 104.272 77.3676 102.62 80.7383C100.968 84.1101 98.6458 86.8123 95.6531 88.8448C93.958 90.0315 92.1095 91.1462 90.1078 92.1889C88.1074 93.2304 86.0731 94.1629 84.0049 94.9865Z" fill="#5A3D8B"/>
</svg>
