<svg width="100" height="100" viewBox="0 0 100 100" fill="none" xmlns="http://www.w3.org/2000/svg">
<path d="M58.7457 0.829835C58.9231 0.862153 59.1006 0.894471 59.2834 0.927768C67.3745 2.41642 74.9078 5.96185 81.2901 11.1303C81.3959 11.2158 81.5017 11.3014 81.6108 11.3895C84.3456 13.6202 86.9139 16.1012 89.064 18.9042C89.2116 19.0851 89.3592 19.266 89.5112 19.4524C94.5368 25.7204 97.7374 33.3881 99.1702 41.2543C99.202 41.4167 99.2338 41.5791 99.2666 41.7465C100.295 47.1317 100.223 53.3721 99.1702 58.7457C99.1378 58.9231 99.1055 59.1006 99.0722 59.2834C97.5836 67.3745 94.0381 74.9078 88.8697 81.2901C88.7842 81.3959 88.6986 81.5017 88.6105 81.6108C86.3797 84.3456 83.8988 86.9139 81.0958 89.064C80.9149 89.2116 80.734 89.3592 80.5476 89.5112C74.2796 94.5368 66.6119 97.7374 58.7457 99.1702C58.5833 99.202 58.4209 99.2338 58.2535 99.2666C52.8683 100.295 46.6279 100.223 41.2543 99.1702C41.0769 99.1378 40.8994 99.1055 40.7166 99.0722C32.6255 97.5836 25.0922 94.0381 18.7099 88.8697C18.6041 88.7842 18.4983 88.6986 18.3892 88.6105C15.6544 86.3797 13.0861 83.8988 10.936 81.0958C10.7884 80.9149 10.6408 80.734 10.4888 80.5476C5.46318 74.2796 2.26258 66.6119 0.829835 58.7457C0.798018 58.5833 0.766201 58.4209 0.73342 58.2535C-0.294776 52.8683 -0.222909 46.6279 0.829835 41.2543C0.862153 41.0769 0.894471 40.8994 0.927768 40.7166C2.41642 32.6255 5.96185 25.0922 11.1303 18.7099C11.2158 18.6041 11.3014 18.4983 11.3895 18.3892C13.6202 15.6544 16.1012 13.0861 18.9042 10.936C19.0851 10.7884 19.266 10.6408 19.4524 10.4888C25.7204 5.46318 33.3881 2.26258 41.2543 0.829835C41.4167 0.798018 41.5791 0.766201 41.7465 0.73342C47.1317 -0.294776 53.3721 -0.222909 58.7457 0.829835ZM42.0317 6.46594C41.8682 6.49826 41.7047 6.53058 41.5363 6.56387C34.7788 7.93698 28.3907 10.7103 22.9856 15.0173C22.8157 15.1498 22.6458 15.2823 22.4708 15.4189C20.3615 17.0983 18.2648 18.9353 16.5721 21.0421C16.3955 21.2552 16.2189 21.4683 16.0422 21.6813C11.3313 27.4102 8.15426 34.0084 6.58741 41.2665C6.55952 41.3954 6.53163 41.5243 6.5029 41.6571C5.95937 44.4012 5.80933 47.1493 5.82216 49.9393C5.82252 50.1003 5.82287 50.2614 5.82323 50.4274C5.83265 52.9796 5.95529 55.4608 6.46594 57.9683C6.49826 58.1318 6.53058 58.2953 6.56387 58.4637C7.93698 65.2212 10.7103 71.6093 15.0173 77.0144C15.1498 77.1843 15.2823 77.3541 15.4189 77.5292C17.0983 79.6385 18.9353 81.7352 21.0421 83.4279C21.2552 83.6045 21.4683 83.7811 21.6813 83.9578C27.4102 88.6687 34.0084 91.8457 41.2665 93.4126C41.3954 93.4405 41.5243 93.4684 41.6571 93.4971C44.4012 94.0406 47.1493 94.1907 49.9393 94.1778C50.1003 94.1775 50.2614 94.1771 50.4274 94.1768C52.9796 94.1673 55.4608 94.0447 57.9683 93.5341C58.1318 93.5017 58.2953 93.4694 58.4637 93.4361C65.2212 92.063 71.6093 89.2897 77.0144 84.9827C77.1843 84.8502 77.3541 84.7177 77.5292 84.5811C79.6385 82.9017 81.7352 81.0647 83.4279 78.9579C83.6045 78.7448 83.7811 78.5317 83.9578 78.3187C88.6687 72.5898 91.8457 65.9916 93.4126 58.7335C93.4405 58.6046 93.4684 58.4757 93.4971 58.3429C94.0406 55.5988 94.1907 52.8507 94.1778 50.0607C94.1775 49.8997 94.1771 49.7386 94.1768 49.5726C94.1673 47.0204 94.0447 44.5392 93.5341 42.0317C93.5017 41.8682 93.4694 41.7047 93.4361 41.5363C92.063 34.7788 89.2897 28.3907 84.9827 22.9856C84.8502 22.8157 84.7177 22.6458 84.5811 22.4708C82.9017 20.3615 81.0647 18.2648 78.9579 16.5721C78.7448 16.3955 78.5317 16.2189 78.3187 16.0422C72.5898 11.3313 65.9916 8.15426 58.7335 6.58741C58.6046 6.55952 58.4757 6.53163 58.3429 6.5029C55.5988 5.95937 52.8507 5.80933 50.0607 5.82216C49.8997 5.82252 49.7386 5.82287 49.5726 5.82323C47.0204 5.83265 44.5392 5.95529 42.0317 6.46594Z" fill="#5A3D8B"/>
<path d="M69.8236 13.0719C69.94 13.134 70.0563 13.1961 70.1762 13.26C71.9765 14.2267 73.6335 15.3445 75.2654 16.5702C75.4282 16.6912 75.5911 16.8122 75.7589 16.9369C84.2848 23.5095 90.0968 33.4736 91.5389 44.15C91.5645 44.3512 91.5645 44.3512 91.5907 44.5564C91.609 44.6931 91.6273 44.8299 91.6462 44.9707C92.6586 53.5367 91.0215 62.2467 86.9263 69.8217C86.8642 69.938 86.8022 70.0544 86.7382 70.1742C85.7716 71.9745 84.6537 73.6316 83.428 75.2634C83.307 75.4263 83.186 75.5891 83.0613 75.7569C76.4887 84.2828 66.5247 90.0948 55.8482 91.537C55.6471 91.5626 55.6471 91.5626 55.4418 91.5887C55.3051 91.607 55.1684 91.6254 55.0275 91.6442C46.4615 92.6567 37.7516 91.0195 30.1765 86.9243C30.0602 86.8623 29.9439 86.8002 29.824 86.7363C28.0237 85.7696 26.3667 84.6518 24.7348 83.4261C24.5719 83.3051 24.4091 83.1841 24.2413 83.0594C15.7154 76.4867 9.90341 66.5227 8.46123 55.8463C8.44417 55.7122 8.4271 55.5781 8.40952 55.4399C8.38204 55.2348 8.38204 55.2348 8.354 55.0255C7.34155 46.4595 8.97873 37.7496 13.0739 30.1746C13.1359 30.0583 13.198 29.9419 13.262 29.8221C14.2286 28.0217 15.3464 26.3647 16.5722 24.7328C16.6932 24.57 16.8142 24.4072 16.9388 24.2394C23.5115 15.7135 33.4755 9.90146 44.1519 8.45928C44.286 8.44221 44.4202 8.42515 44.5583 8.40756C44.7634 8.38008 44.7634 8.38008 44.9727 8.35205C53.5387 7.3396 62.2486 8.97678 69.8236 13.0719ZM44.364 11.3228C44.3917 11.6265 44.4202 11.9302 44.449 12.2338C44.4648 12.4029 44.4806 12.572 44.4968 12.7462C44.5561 13.2473 44.6537 13.7433 44.7527 14.238C43.6945 14.3342 43.6945 14.3342 42.6148 14.4324C42.4866 13.5986 42.3583 12.7649 42.2262 11.9058C41.3482 11.6132 40.6482 11.9157 39.7725 12.1488C39.6006 12.1911 39.4288 12.2334 39.2517 12.2771C39.0884 12.3199 38.925 12.3628 38.7567 12.4069C38.6068 12.4458 38.4568 12.4847 38.3023 12.5248C38.1862 12.577 38.0701 12.6293 37.9505 12.6832C37.7262 13.356 37.795 13.4995 38.0355 14.1408C38.2373 14.6838 38.3392 15.0113 38.3392 15.5985C37.762 15.7909 37.1848 15.9833 36.59 16.1815C36.2694 15.3477 35.9487 14.514 35.6183 13.655C34.2178 14.1802 32.8588 14.7043 31.537 15.4041C31.6709 16.0627 31.9232 16.6052 32.2294 17.2018C32.3857 17.5065 32.542 17.8111 32.7031 18.125C32.0617 18.4457 31.4204 18.7663 30.7596 19.0967C30.5672 18.6157 30.5672 18.6157 30.3709 18.125C30.2385 17.8751 30.1013 17.6278 29.9579 17.384C29.8377 17.1796 29.7174 16.9752 29.5935 16.7645C28.6745 17.0703 27.972 17.5821 27.2006 18.1493C27.0752 18.2402 26.9498 18.3312 26.8206 18.4249C26.5134 18.6479 26.207 18.8722 25.9009 19.0967C26.0803 19.9187 26.442 20.304 27.0131 20.9074C27.2613 21.2346 27.2613 21.2346 27.2613 21.8176C26.2218 22.7894 26.2218 22.7894 25.7065 22.7894C25.4275 22.4756 25.1621 22.1495 24.9048 21.8176C24.6936 21.547 24.6936 21.547 24.4782 21.271C24.3705 21.1307 24.2627 20.9904 24.1517 20.8459C22.7959 21.6454 21.5551 22.7352 20.8478 24.1498C21.4892 24.6629 22.1305 25.176 22.7913 25.7046C22.4682 26.3508 22.2941 26.5905 21.8196 27.065C21.8196 27.1933 21.8196 27.3216 21.8196 27.4537C20.971 26.9968 20.3643 26.5815 19.6817 25.8989C19.4893 25.8989 19.2969 25.8989 19.0987 25.8989C18.7999 26.201 18.7999 26.201 18.5316 26.608C18.4282 26.7553 18.3249 26.9026 18.2184 27.0544C18.1121 27.2102 18.0057 27.366 17.8962 27.5266C17.7875 27.6809 17.6789 27.8352 17.567 27.9942C16.9869 28.729 16.9869 28.729 16.7665 29.5915C17.1897 29.9021 17.1897 29.9021 17.7139 30.1989C17.8898 30.3036 18.0657 30.4083 18.2469 30.5162C18.6804 30.7876 18.6804 30.7876 19.0987 30.7576C18.778 31.399 18.4573 32.0403 18.1269 32.7011C17.9794 32.6169 17.8318 32.5328 17.6798 32.446C17.4866 32.3378 17.2935 32.2296 17.0945 32.1181C16.9028 32.0099 16.7112 31.9016 16.5137 31.7901C15.9989 31.4925 15.9989 31.4925 15.4061 31.535C15.1501 32.0691 14.8952 32.6036 14.6408 33.1384C14.5683 33.2895 14.4958 33.4405 14.421 33.5962C14.3168 33.816 14.3168 33.816 14.2104 34.0403C14.1462 34.1747 14.0821 34.309 14.0161 34.4474C13.8166 34.8934 13.8166 34.8934 13.6569 35.6164C14.9076 36.0974 14.9076 36.0974 16.1835 36.5881C15.9911 37.1653 15.7986 37.7425 15.6004 38.3372C15.3318 38.2771 15.0633 38.217 14.7866 38.155C14.1522 38.0139 13.5176 37.8777 12.8795 37.7542C12.2971 39.1409 12.005 40.5575 11.7134 42.0299C12.639 42.3561 13.4633 42.5125 14.4343 42.6129C14.3702 43.3184 14.306 44.0239 14.24 44.7507C13.7085 44.6495 13.1771 44.5483 12.6457 44.4471C12.0658 44.342 12.0658 44.342 11.3247 44.362C11.257 44.6691 11.1931 44.977 11.1304 45.2852C11.0943 45.4566 11.0582 45.6279 11.0211 45.8045C10.8985 46.8066 10.936 47.8225 10.936 48.832C13.5014 48.832 16.0668 48.832 18.71 48.832C18.71 49.6017 18.71 50.3713 18.71 51.1642C16.1446 51.1642 13.5792 51.1642 10.936 51.1642C10.9038 52.9898 10.9038 52.9898 11.1304 54.7111C11.1845 54.9771 11.1845 54.9771 11.2397 55.2486C11.2678 55.3759 11.2958 55.5031 11.3247 55.6342C11.6285 55.6065 11.9321 55.578 12.2358 55.5492C12.4049 55.5334 12.574 55.5177 12.7482 55.5014C13.2492 55.4421 13.7452 55.3445 14.24 55.2455C14.3041 55.951 14.3682 56.6565 14.4343 57.3834C13.1837 57.5758 13.1837 57.5758 11.9078 57.7721C11.6151 58.65 11.9176 59.35 12.1507 60.2257C12.1931 60.3976 12.2354 60.5695 12.279 60.7465C12.3433 60.9915 12.3433 60.9915 12.4088 61.2415C12.4477 61.3915 12.4866 61.5414 12.5267 61.696C12.579 61.812 12.6313 61.9281 12.6852 62.0477C13.3579 62.272 13.5015 62.2032 14.1428 61.9627C14.6857 61.7609 15.0133 61.659 15.6004 61.659C15.7928 62.2363 15.9852 62.8135 16.1835 63.4082C15.3497 63.7289 14.5159 64.0495 13.6569 64.3799C14.1821 65.7804 14.7063 67.1394 15.4061 68.4612C16.0647 68.3274 16.6072 68.075 17.2038 67.7689C17.5084 67.6125 17.8131 67.4562 18.1269 67.2952C18.608 68.2572 18.608 68.2572 19.0987 69.2386C18.778 69.3669 18.4573 69.4952 18.1269 69.6273C17.8771 69.7597 17.6297 69.897 17.386 70.0403C17.1816 70.1606 16.9771 70.2808 16.7665 70.4047C17.0722 71.3237 17.584 72.0263 18.1512 72.7976C18.2422 72.923 18.3331 73.0484 18.4268 73.1776C18.6499 73.4849 18.8741 73.7912 19.0987 74.0974C19.9206 73.9179 20.306 73.5563 20.9093 72.9852C21.2365 72.7369 21.2365 72.7369 21.8196 72.7369C22.7913 73.7764 22.7913 73.7764 22.7913 74.2917C22.4775 74.5707 22.1515 74.8362 21.8196 75.0934C21.6392 75.2342 21.4588 75.375 21.273 75.52C21.1327 75.6278 20.9924 75.7355 20.8478 75.8465C21.6474 77.2023 22.7372 78.4431 24.1517 79.1504C24.6648 78.5091 25.1779 77.8677 25.7065 77.2069C26.2992 77.5033 26.749 77.7761 27.2613 78.1787C27.1184 79.0017 26.7085 79.3984 26.1491 79.9893C25.8421 80.3255 25.8421 80.3255 25.9009 80.8995C26.203 81.1983 26.203 81.1983 26.6099 81.4666C26.7573 81.57 26.9046 81.6733 27.0563 81.7798C27.2122 81.8862 27.368 81.9925 27.5285 82.1021C27.6829 82.2107 27.8372 82.3193 27.9962 82.4312C28.731 83.0113 28.731 83.0113 29.5935 83.2317C29.904 82.8085 29.904 82.8085 30.2008 82.2843C30.3056 82.1084 30.4103 81.9325 30.5182 81.7513C30.7895 81.3178 30.7895 81.3178 30.7596 80.8995C31.4009 81.2202 32.0423 81.5409 32.7031 81.8713C32.6189 82.0188 32.5347 82.1664 32.448 82.3184C32.3398 82.5116 32.2315 82.7048 32.12 82.9038C32.0118 83.0954 31.9036 83.2871 31.7921 83.4845C31.4945 83.9993 31.4945 83.9993 31.537 84.5922C32.071 84.8481 32.6055 85.1031 33.1404 85.3574C33.367 85.4662 33.367 85.4662 33.5981 85.5772C33.7447 85.6467 33.8913 85.7162 34.0423 85.7879C34.1766 85.852 34.3109 85.9161 34.4494 85.9822C34.8953 86.1816 34.8953 86.1816 35.6183 86.3413C35.939 85.5075 36.2597 84.6738 36.59 83.8148C37.4559 84.1034 37.4559 84.1034 38.3392 84.3978C38.2003 85.3236 37.9903 86.2134 37.7561 87.1187C39.1428 87.7011 40.5594 87.9932 42.0318 88.2848C42.2694 87.6106 42.4683 86.9802 42.542 86.2684C42.566 86.0359 42.5901 85.8034 42.6148 85.5639C43.3203 85.628 44.0258 85.6922 44.7527 85.7583C44.6515 86.2897 44.5502 86.8211 44.449 87.3525C44.344 87.9324 44.344 87.9324 44.364 88.6735C44.6711 88.7412 44.979 88.8052 45.2871 88.8678C45.4585 88.9039 45.6299 88.94 45.8064 88.9772C46.8085 89.0997 47.8244 89.0622 48.834 89.0622C48.834 86.4968 48.834 83.9314 48.834 81.2882C49.6036 81.2882 50.3732 81.2882 51.1662 81.2882C51.1662 83.8536 51.1662 86.419 51.1662 89.0622C52.9918 89.0944 52.9918 89.0944 54.713 88.8678C54.8904 88.8318 55.0678 88.7957 55.2505 88.7585C55.3778 88.7305 55.5051 88.7024 55.6362 88.6735C55.6085 88.3698 55.58 88.0661 55.5512 87.7625C55.5354 87.5934 55.5196 87.4243 55.5033 87.25C55.4441 86.749 55.3464 86.253 55.2475 85.7583C55.953 85.6941 56.6585 85.63 57.3853 85.5639C57.5136 86.3977 57.6419 87.2314 57.774 88.0904C58.652 88.3831 59.352 88.0806 60.2277 87.8475C60.3995 87.8052 60.5714 87.7628 60.7485 87.7192C60.9118 87.6764 61.0752 87.6335 61.2435 87.5894C61.4684 87.531 61.4684 87.531 61.6979 87.4715C61.814 87.4192 61.9301 87.3669 62.0497 87.313C62.2694 86.6539 62.2261 86.57 61.9647 85.9648C61.7035 85.3568 61.661 85.0981 61.661 84.3978C62.5268 84.1092 62.5268 84.1092 63.4101 83.8148C63.7308 84.6485 64.0515 85.4823 64.3819 86.3413C65.7824 85.8161 67.1413 85.292 68.4632 84.5922C68.3293 83.9335 68.077 83.3911 67.7708 82.7944C67.5363 82.3375 67.5363 82.3375 67.2971 81.8713C67.9385 81.5506 68.5798 81.2299 69.2406 80.8995C69.3689 81.2202 69.4971 81.5409 69.6293 81.8713C69.7617 82.1211 69.8989 82.3685 70.0423 82.6122C70.1625 82.8167 70.2828 83.0211 70.4067 83.2317C71.3256 82.926 72.0282 82.4142 72.7996 81.847C72.925 81.7561 73.0504 81.6651 73.1796 81.5714C73.4868 81.3484 73.7932 81.1241 74.0993 80.8995C73.9198 80.0776 73.5582 79.6923 72.9871 79.0889C72.7389 78.7617 72.7389 78.7617 72.7389 78.1787C73.7784 77.2069 73.7784 77.2069 74.2936 77.2069C74.5727 77.5207 74.8381 77.8468 75.0953 78.1787C75.2361 78.359 75.3769 78.5394 75.522 78.7253C75.6297 78.8656 75.7374 79.0059 75.8484 79.1504C77.2042 78.3508 78.4451 77.2611 79.1524 75.8465C78.511 75.3334 77.8697 74.8203 77.2089 74.2917C77.532 73.6455 77.7061 73.4058 78.1806 72.9313C78.1806 72.803 78.1806 72.6747 78.1806 72.5426C79.0292 72.9995 79.6359 73.4148 80.3185 74.0974C80.5109 74.0974 80.7033 74.0974 80.9015 74.0974C81.2003 73.7952 81.2003 73.7952 81.4686 73.3883C81.5719 73.241 81.6753 73.0937 81.7818 72.9419C81.8881 72.7861 81.9945 72.6302 82.104 72.4697C82.2126 72.3154 82.3212 72.161 82.4331 72.002C83.0132 71.2673 83.0132 71.2673 83.2337 70.4047C82.8105 70.0942 82.8105 70.0942 82.2862 69.7974C82.0224 69.6403 82.0224 69.6403 81.7533 69.4801C81.3198 69.2087 81.3198 69.2087 80.9015 69.2386C81.2222 68.5973 81.5428 67.9559 81.8732 67.2952C82.0208 67.3793 82.1684 67.4635 82.3204 67.5502C82.5135 67.6585 82.7067 67.7667 82.9057 67.8782C83.0974 67.9864 83.289 68.0947 83.4865 68.2062C84.0012 68.5037 84.0012 68.5037 84.5941 68.4612C84.8501 67.9272 85.105 67.3927 85.3594 66.8579C85.4682 66.6313 85.4682 66.6313 85.5791 66.4001C85.6487 66.2535 85.7182 66.107 85.7898 65.956C85.8539 65.8216 85.9181 65.6873 85.9841 65.5489C86.1835 65.1029 86.1835 65.1029 86.3433 64.3799C85.5095 64.0592 84.6757 63.7386 83.8167 63.4082C84.0091 62.831 84.2015 62.2537 84.3998 61.659C84.8026 61.7492 84.8026 61.7492 85.2136 61.8412C85.848 61.9823 86.4826 62.1186 87.1207 62.2421C87.7031 60.8554 87.9952 59.4388 88.2867 57.9664C87.3611 57.6402 86.5368 57.4838 85.5659 57.3834C85.63 56.6779 85.6941 55.9724 85.7602 55.2455C86.2916 55.3468 86.8231 55.448 87.3545 55.5492C87.9344 55.6543 87.9344 55.6543 88.6754 55.6342C88.7431 55.3272 88.8071 55.0192 88.8698 54.7111C88.9059 54.5397 88.9419 54.3684 88.9791 54.1918C89.1016 53.1897 89.0641 52.1738 89.0641 51.1642C86.4987 51.1642 83.9333 51.1642 81.2902 51.1642C81.2902 50.3946 81.2902 49.625 81.2902 48.832C83.8556 48.832 86.421 48.832 89.0641 48.832C89.0964 47.0065 89.0964 47.0065 88.8698 45.2852C88.8337 45.1078 88.7976 44.9304 88.7605 44.7477C88.7324 44.6204 88.7043 44.4932 88.6754 44.362C88.3717 44.3898 88.0681 44.4183 87.7644 44.4471C87.5953 44.4628 87.4262 44.4786 87.252 44.4949C86.751 44.5541 86.2549 44.6518 85.7602 44.7507C85.6961 44.0452 85.6319 43.3398 85.5659 42.6129C86.3996 42.4846 87.2334 42.3564 88.0924 42.2242C88.385 41.3463 88.0826 40.6463 87.8495 39.7705C87.8071 39.5987 87.7648 39.4268 87.7212 39.2498C87.6783 39.0864 87.6355 38.9231 87.5913 38.7548C87.533 38.5298 87.533 38.5298 87.4735 38.3003C87.395 38.1262 87.395 38.1262 87.315 37.9485C86.6422 37.7243 86.4987 37.7931 85.8574 38.0336C85.3145 38.2353 84.9869 38.3372 84.3998 38.3372C84.2074 37.76 84.015 37.1828 83.8167 36.5881C85.0674 36.1071 85.0674 36.1071 86.3433 35.6164C85.8181 34.2158 85.2939 32.8569 84.5941 31.535C83.9355 31.6689 83.393 31.9212 82.7964 32.2274C82.4918 32.3837 82.1871 32.5401 81.8732 32.7011C81.5526 32.0598 81.2319 31.4184 80.9015 30.7576C81.2222 30.6294 81.5428 30.5011 81.8732 30.3689C82.1231 30.2365 82.3705 30.0993 82.6142 29.956C82.8186 29.8357 83.0231 29.7154 83.2337 29.5915C82.9279 28.6726 82.4162 27.97 81.8489 27.1986C81.758 27.0732 81.6671 26.9479 81.5734 26.8187C81.3503 26.5114 81.126 26.2051 80.9015 25.8989C80.2516 26.0416 79.9215 26.2205 79.4317 26.6763C78.9874 27.088 78.77 27.2573 78.1806 27.4537C78.1025 27.2793 78.1025 27.2793 78.0227 27.1015C77.8134 26.6679 77.8134 26.6679 77.4761 26.3605C77.3879 26.2723 77.2997 26.1841 77.2089 26.0933C77.2089 25.965 77.2089 25.8367 77.2089 25.7046C77.5227 25.4255 77.8487 25.1601 78.1806 24.9029C78.361 24.7621 78.5414 24.6213 78.7272 24.4762C78.9377 24.3146 78.9377 24.3146 79.1524 24.1498C78.3528 22.794 77.263 21.5532 75.8484 20.8459C75.0788 21.8079 75.0788 21.8079 74.2936 22.7894C73.701 22.493 73.2512 22.2201 72.7389 21.8176C72.8818 20.9946 73.2917 20.5979 73.8511 20.007C74.158 19.6708 74.158 19.6708 74.0993 19.0967C73.7972 18.7979 73.7972 18.7979 73.3902 18.5296C73.2429 18.4263 73.0956 18.3229 72.9438 18.2165C72.788 18.1101 72.6322 18.0038 72.4716 17.8942C72.2401 17.7313 72.2401 17.7313 72.004 17.5651C71.2692 16.985 71.2692 16.985 70.4067 16.7645C70.0962 17.1877 70.0962 17.1877 69.7993 17.712C69.6423 17.9758 69.6423 17.9758 69.482 18.2449C69.2106 18.6784 69.2106 18.6784 69.2406 19.0967C68.5992 18.7761 67.9579 18.4554 67.2971 18.125C67.3813 17.9774 67.4655 17.8299 67.5522 17.6778C67.6604 17.4847 67.7686 17.2915 67.8801 17.0925C67.9884 16.9009 68.0966 16.7092 68.2081 16.5117C68.5057 15.997 68.5057 15.997 68.4632 15.4041C67.9291 15.1482 67.3946 14.8932 66.8598 14.6389C66.7088 14.5663 66.5577 14.4938 66.402 14.4191C66.2555 14.3496 66.1089 14.28 65.9579 14.2084C65.8236 14.1443 65.6892 14.0802 65.5508 14.0141C65.1049 13.8147 65.1049 13.8147 64.3819 13.655C64.0612 14.4887 63.7405 15.3225 63.4101 16.1815C62.8329 15.9891 62.2557 15.7967 61.661 15.5985C61.7211 15.3299 61.7812 15.0613 61.8432 14.7846C61.9843 14.1503 62.1205 13.5156 62.244 12.8776C60.8574 12.2952 59.4408 12.0031 57.9684 11.7115C57.7308 12.3857 57.5318 13.0161 57.4582 13.7279C57.4221 14.0766 57.4221 14.0766 57.3853 14.4324C56.6798 14.3682 55.9744 14.3041 55.2475 14.238C55.3487 13.7066 55.4499 13.1752 55.5512 12.6438C55.6562 12.0639 55.6562 12.0639 55.6362 11.3228C54.121 10.9887 52.7176 10.8976 51.1662 10.9341C51.1662 11.8961 51.1662 12.8581 51.1662 13.8493C50.3966 13.8493 49.6269 13.8493 48.834 13.8493C48.834 12.8873 48.834 11.9253 48.834 10.9341C47.2826 10.8976 45.8792 10.9887 44.364 11.3228Z" fill="#5A3D8B"/>
<path d="M51.6355 32.0707C51.8386 32.1455 52.0416 32.2204 52.2509 32.2976C52.5776 32.4213 52.5776 32.4213 52.9109 32.5476C53.1397 32.6325 53.3685 32.7174 53.6043 32.8049C54.219 33.0335 54.8332 33.2637 55.4471 33.4946C56.078 33.7315 56.7097 33.9663 57.3414 34.2012C58.332 34.5697 59.3221 34.9392 60.312 35.3094C61.9601 35.9253 63.6116 36.5316 65.2642 37.1352C65.9978 37.4038 66.7313 37.6724 67.4871 37.9491C67.4871 40.3221 67.4871 42.6951 67.4871 45.14C65.3006 46.0146 65.3006 46.0146 64.2003 46.3858C64.0806 46.4263 63.9608 46.4669 63.8374 46.5087C63.4493 46.6401 63.0608 46.7707 62.6724 46.9013C62.3975 46.9941 62.1227 47.087 61.8478 47.1799C61.1287 47.4229 60.4094 47.6653 59.6901 47.9075C58.9637 48.1522 58.2376 48.3975 57.5115 48.6428C56.6915 48.9197 55.8715 49.1965 55.0514 49.473C54.9267 49.5151 54.8021 49.5571 54.6737 49.6005C54.3126 49.7219 53.9511 49.842 53.5896 49.9621C53.1481 50.1123 52.7088 50.2693 52.2724 50.4338C50.0596 51.2497 48.5932 50.7556 46.4132 50.0108C46.1817 49.9333 45.9503 49.8558 45.7119 49.7759C45.0971 49.5695 44.4828 49.3616 43.8688 49.1529C43.2624 48.9473 42.6553 48.744 42.0483 48.5403C40.6148 48.0585 39.183 47.572 37.7518 47.0835C37.6298 47.0419 37.5079 47.0003 37.3823 46.9575C36.5473 46.6726 35.7127 46.3864 34.8783 46.0996C34.6611 46.0253 34.4439 45.951 34.2202 45.8745C34.0224 45.8062 33.8247 45.7379 33.621 45.6676C33.4469 45.6077 33.2728 45.5478 33.0934 45.4861C32.6987 45.3343 32.6987 45.3343 32.5043 45.14C32.4871 44.6077 32.482 44.0803 32.4854 43.548C32.4856 43.3886 32.4859 43.2293 32.4862 43.0652C32.4873 42.5542 32.4897 42.0433 32.4922 41.5324C32.4932 41.1868 32.4941 40.8413 32.4949 40.4957C32.497 39.6468 32.5004 38.798 32.5043 37.9491C32.7986 37.8406 33.0929 37.7321 33.3871 37.6236C33.6594 37.5232 33.9316 37.4229 34.2038 37.3225C34.9961 37.0304 35.7885 36.7386 36.5811 36.4473C38.324 35.8066 40.0659 35.1633 41.8052 34.513C42.6703 34.1898 43.5358 33.8682 44.4015 33.5467C44.8263 33.3885 45.2509 33.2296 45.6753 33.0701C46.2746 32.8448 46.8748 32.6219 47.4753 32.3995C47.7436 32.2977 47.7436 32.2977 48.0173 32.1938C48.1843 32.1324 48.3512 32.0711 48.5233 32.0079C48.7398 31.927 48.7398 31.927 48.9606 31.8444C49.9295 31.599 50.7124 31.7254 51.6355 32.0707ZM48.4902 34.0419C48.2658 34.1224 48.0414 34.2028 47.8103 34.2857C47.5665 34.3746 47.3227 34.4635 47.079 34.5525C46.8283 34.6432 46.5776 34.7338 46.3269 34.8243C45.8022 35.014 45.2779 35.2046 44.7537 35.3958C44.0816 35.6409 43.4087 35.884 42.7356 36.1264C42.2181 36.313 41.701 36.5006 41.1841 36.6886C40.9361 36.7787 40.6879 36.8684 40.4397 36.9578C40.0932 37.0828 39.7473 37.2093 39.4013 37.336C39.1058 37.4434 39.1058 37.4434 38.8042 37.553C38.3108 37.7307 38.3108 37.7307 37.9461 38.1434C39.0168 38.5097 40.0876 38.8759 41.1584 39.2419C41.5209 39.3658 41.8835 39.4898 42.2461 39.6139C42.5076 39.7033 42.5076 39.7033 42.7744 39.7946C42.9487 39.8543 43.123 39.9139 43.3025 39.9753C43.6546 40.0955 44.0068 40.2151 44.3593 40.3343C45.2082 40.6214 46.0544 40.9135 46.8962 41.2209C47.1295 41.304 47.1295 41.304 47.3674 41.3888C47.6556 41.4916 47.9429 41.597 48.2289 41.7058C50.1146 42.3681 51.7948 41.682 53.6147 41.0655C53.8442 40.989 54.0738 40.9126 54.3103 40.8338C54.9154 40.6317 55.5199 40.428 56.1242 40.2237C56.6191 40.057 57.1147 39.8925 57.6103 39.728C58.2021 39.5313 58.7932 39.3327 59.3844 39.1341C59.6065 39.0602 59.8285 38.9863 60.0573 38.9102C60.2618 38.8408 60.4662 38.7714 60.6769 38.6999C60.8572 38.6393 61.0375 38.5786 61.2232 38.516C61.6861 38.3582 61.6861 38.3582 62.0453 37.9491C59.4082 36.9473 56.7636 35.9657 54.1131 35.0001C53.7978 34.885 53.4827 34.7696 53.1678 34.6536C52.7212 34.4894 52.2741 34.3268 51.8268 34.1646C51.6926 34.1149 51.5583 34.0652 51.42 34.0139C50.3021 33.6119 49.5943 33.6428 48.4902 34.0419Z" fill="#5A3D8B"/>
<path d="M32.5065 49.2236C32.7631 49.2878 33.0196 49.3519 33.2839 49.418C33.3125 49.7141 33.3125 49.7141 33.3416 50.0162C33.5871 52.3565 33.9136 54.6501 35.6161 56.4145C36.1611 56.8505 36.4716 56.9803 37.1587 57.0826C37.9238 56.9733 38.4014 56.7843 38.92 56.2202C39.7715 54.878 40.273 53.5176 40.4748 51.9445C40.6031 51.9445 40.7314 51.9445 40.8635 51.9445C40.8685 52.1279 40.8735 52.3113 40.8787 52.5002C40.9905 55.0308 41.4866 57.3192 43.2564 59.2326C43.9585 59.6244 44.5584 59.6675 45.3335 59.5241C46.3917 59.0676 46.7918 58.3694 47.2573 57.3635C47.617 56.4221 47.8463 55.4557 48.0544 54.471C48.3971 54.5733 48.3971 54.5733 48.7468 54.6775C49.543 54.8773 50.1603 54.8334 50.9696 54.6654C51.2935 54.6004 51.6174 54.5356 51.9414 54.471C52.0086 54.7352 52.0086 54.7352 52.0773 55.0047C52.69 57.5987 52.69 57.5987 54.4436 59.4634C55.035 59.7035 55.2869 59.7149 55.9498 59.6577C57.5924 58.8364 58.1547 57.3006 58.7436 55.6371C58.9818 54.893 59.0026 54.1286 59.0472 53.3535C59.0598 53.1502 59.0598 53.1502 59.0727 52.9428C59.0932 52.6101 59.1128 52.2773 59.1323 51.9445C59.2605 51.9445 59.3888 51.9445 59.521 51.9445C59.5495 52.1043 59.5781 52.2642 59.6075 52.4289C59.9317 54.0426 60.3348 55.7644 61.7582 56.7539C62.3731 57.0637 62.7262 57.095 63.4079 56.9976C64.5491 56.4508 65.2028 55.5896 65.7401 54.471C66.2735 52.827 66.6287 51.1483 66.7119 49.418C66.9684 49.3538 67.2249 49.2897 67.4893 49.2236C67.4893 53.5848 67.4893 57.946 67.4893 62.4393C65.3031 63.3138 65.3031 63.3138 64.3071 63.6433C64.0845 63.7173 63.8618 63.7913 63.6324 63.8675C63.3978 63.9449 63.1631 64.0222 62.9213 64.1019C62.6705 64.1851 62.4198 64.2683 62.1691 64.3516C61.5127 64.5696 60.856 64.7869 60.1993 65.004C59.1558 65.349 58.1126 65.6949 57.0694 66.0411C56.6925 66.166 56.3154 66.2904 55.9383 66.4146C54.8992 66.7585 53.8637 67.1049 52.8403 67.4933C52.6902 67.5498 52.54 67.6062 52.3853 67.6644C52.011 67.8072 51.6387 67.9547 51.2665 68.1029C49.4926 68.5348 47.8368 67.7912 46.1686 67.2115C45.9108 67.1234 45.6529 67.0354 45.395 66.9476C44.7174 66.7164 44.0405 66.4832 43.3638 66.2494C42.6892 66.0168 42.014 65.7859 41.3388 65.555C40.5518 65.2858 39.7648 65.0164 38.9783 64.7458C37.2747 64.1601 35.5679 63.5847 33.8549 63.0269C32.7216 62.6544 32.7216 62.6544 32.5065 62.4393C32.4882 62.0279 32.4837 61.6159 32.4845 61.2041C32.4844 61.0752 32.4844 60.9462 32.4844 60.8134C32.4845 60.3854 32.486 59.9574 32.4875 59.5294C32.4879 59.2334 32.4882 58.9374 32.4884 58.6414C32.4891 57.8608 32.491 57.0802 32.4932 56.2997C32.4952 55.5038 32.4961 54.7078 32.497 53.9119C32.4991 52.3491 32.5024 50.7864 32.5065 49.2236Z" fill="#5A3D8B"/>
<path d="M49.8053 15.6016C49.9336 15.6016 50.0618 15.6016 50.194 15.6016C50.2632 15.7312 50.3324 15.8609 50.4037 15.9945C51.737 18.49 53.0853 20.9733 54.487 23.4312C55.4204 25.0738 56.3166 26.7355 57.2038 28.4035C57.8642 29.641 58.5552 30.8505 59.2894 32.0459C59.3664 32.199 59.4434 32.3521 59.5227 32.5099C59.4586 32.6382 59.3944 32.7664 59.3284 32.8986C58.6821 32.528 58.0362 32.1569 57.3905 31.7854C57.1604 31.6532 56.9303 31.5211 56.7 31.3892C55.4939 30.6978 54.2936 30.0019 53.1153 29.2637C52.9409 29.1551 52.7664 29.0466 52.5867 28.9347C52.2617 28.7311 51.9383 28.5249 51.6169 28.3156C50.9953 27.9279 50.5603 27.6615 49.822 27.617C48.9029 27.9672 48.0913 28.4621 47.2545 28.9752C47.0685 29.0868 46.8825 29.1985 46.6909 29.3135C45.7307 29.8909 44.7759 30.4769 43.8222 31.0652C43.6455 31.1733 43.4688 31.2815 43.2867 31.3929C42.9487 31.6001 42.6118 31.8091 42.2761 32.0201C42.0486 32.1596 42.0486 32.1596 41.8165 32.3019C41.6176 32.4258 41.6176 32.4258 41.4148 32.5523C41.0596 32.7042 41.0596 32.7042 40.4766 32.5099C43.5861 26.8738 46.6957 21.2377 49.8053 15.6016Z" fill="#5A3D8B"/>
<path d="M58.9408 52.1367C58.6791 53.7855 58.0988 54.987 56.8516 56.1209C56.0801 56.6352 55.6015 56.6848 54.6652 56.6067C53.6377 56.093 53.1403 55.4064 52.5273 54.4689C52.7217 54.0802 52.7217 54.0802 53.2728 53.8577C53.5136 53.7783 53.7543 53.6989 54.0024 53.6171C54.1306 53.5745 54.2589 53.5319 54.391 53.4881C54.6624 53.3982 54.9341 53.309 55.206 53.2205C55.6229 53.0848 56.0389 52.9469 56.4549 52.8086C58.4917 52.1367 58.4917 52.1367 58.9408 52.1367Z" fill="#5A3D8B"/>
<path d="M41.0625 52.1367C42.5171 52.4944 43.9394 52.9464 45.3625 53.4121C45.5469 53.4714 45.7313 53.5307 45.9214 53.5917C46.0942 53.649 46.267 53.7062 46.445 53.7651C46.6014 53.8164 46.7578 53.8676 46.9189 53.9204C47.2817 54.0802 47.2817 54.0802 47.476 54.4689C46.2421 56.254 46.2421 56.254 45.3382 56.6067C44.5141 56.7116 44.0958 56.6693 43.3582 56.2788C42.0659 55.2162 41.2301 53.8131 41.0625 52.1367Z" fill="#5A3D8B"/>
<path d="M66.3246 49.6113C66.2286 51.1164 65.6061 52.3437 64.539 53.4133C63.8354 53.9605 63.2079 54.0566 62.3283 54.0016C61.5283 53.808 60.989 53.369 60.4942 52.7209C60.354 52.4014 60.222 52.078 60.1055 51.7492C61.4145 51.1946 62.7492 50.7149 64.0896 50.243C64.2639 50.1812 64.4382 50.1194 64.6178 50.0558C64.7822 49.9983 64.9466 49.9408 65.116 49.8816C65.2645 49.8295 65.4129 49.7775 65.5658 49.7239C65.9359 49.6113 65.9359 49.6113 66.3246 49.6113Z" fill="#5A3D8B"/>
<path d="M33.6738 49.6113C35.0526 50.0155 36.4177 50.453 37.7794 50.911C37.9653 50.9733 38.1512 51.0355 38.3427 51.0997C38.7948 51.2511 39.2468 51.4028 39.6986 51.5548C39.6986 52.3932 39.6653 52.4694 39.1399 53.0489C39.0362 53.1659 38.9324 53.2829 38.8256 53.4034C38.3322 53.8904 37.9199 53.9424 37.245 53.9842C36.226 53.968 35.7034 53.6795 34.988 52.9684C34.2137 51.9692 33.6738 50.8815 33.6738 49.6113Z" fill="#5A3D8B"/>
</svg>
