<svg width="77" height="100" viewBox="0 0 77 100" fill="none" xmlns="http://www.w3.org/2000/svg">
<path d="M13.094 0.0561181C13.3462 0.0548281 13.5983 0.0535381 13.8581 0.0522091C14.5515 0.049312 15.2447 0.0492212 15.938 0.0503825C16.6883 0.0509513 17.4386 0.0478642 18.1888 0.0452796C19.6559 0.0408351 21.123 0.0398583 22.5901 0.0402367C23.7829 0.0405143 24.9757 0.0397048 26.1685 0.0381348C26.5128 0.0376902 26.8571 0.037246 27.2015 0.0368021C27.3729 0.0365811 27.5443 0.0363601 27.7209 0.0361324C30.9576 0.0321353 34.1943 0.0323499 37.431 0.0337963C40.3895 0.0349777 43.348 0.0305631 46.3066 0.0235546C49.3484 0.0164051 52.3901 0.013198 55.4319 0.0141764C57.138 0.0146511 58.8442 0.0135501 60.5504 0.0082693C62.0023 0.00381321 63.4543 0.00306442 64.9063 0.00706207C65.6464 0.00899755 66.3865 0.0092556 67.1267 0.00486895C67.9305 0.00101846 68.7339 0.00371506 69.5377 0.0080334C69.7697 0.00538238 70.0017 0.00273135 70.2408 0C71.9732 0.0199178 73.3951 0.421961 74.6893 1.61993C75.9287 2.92683 76.4308 4.18244 76.433 5.97723C76.4341 6.13242 76.4351 6.2876 76.4362 6.44749C76.4389 6.96653 76.4372 7.48544 76.4354 8.00448C76.4364 8.38075 76.4377 8.75701 76.4393 9.13328C76.4428 10.1666 76.4423 11.1998 76.4411 12.2331C76.4406 13.3477 76.4436 14.4624 76.4462 15.577C76.4507 17.7605 76.4517 19.944 76.4513 22.1275C76.451 23.9023 76.4518 25.677 76.4534 27.4518C76.4538 27.9629 76.4543 28.474 76.4547 28.9851C76.455 29.3666 76.455 29.3666 76.4554 29.7559C76.4594 34.5677 76.4592 39.3796 76.4577 44.1914C76.4565 48.5934 76.4609 52.9954 76.468 57.3975C76.4751 61.9172 76.4783 66.4369 76.4773 70.9566C76.4769 73.4942 76.478 76.0318 76.4832 78.5694C76.4877 80.7298 76.4885 82.8902 76.4845 85.0506C76.4825 86.1528 76.4823 87.2549 76.4866 88.357C76.4906 89.3665 76.4897 90.3758 76.4848 91.3852C76.4839 91.7499 76.4848 92.1146 76.4877 92.4793C76.5037 94.6607 76.4331 96.5319 74.8778 98.2207C73.2419 99.8183 71.5203 99.9815 69.3314 99.9698C69.0751 99.9709 68.8187 99.9721 68.5546 99.9733C67.8466 99.9757 67.1386 99.9754 66.4306 99.9739C65.6656 99.9728 64.9006 99.9755 64.1356 99.9777C62.638 99.9813 61.1405 99.9815 59.643 99.9804C58.425 99.9795 57.2071 99.9798 55.9891 99.981C55.7288 99.9812 55.7288 99.9812 55.4632 99.9814C55.1106 99.9818 54.758 99.9821 54.4054 99.9824C51.1003 99.9853 47.7951 99.9842 44.4899 99.9817C41.4701 99.9796 38.4503 99.9824 35.4305 99.9874C32.3263 99.9926 29.2221 99.9946 26.1179 99.9932C24.3766 99.9925 22.6352 99.993 20.8939 99.9967C19.411 99.9998 17.9281 99.9999 16.4452 99.9962C15.6895 99.9944 14.9339 99.994 14.1782 99.9972C13.3567 100.001 12.5352 99.9976 11.7136 99.9938C11.478 99.9959 11.2425 99.9979 10.9998 100C7.90914 99.9713 5.28948 98.8694 3.02329 96.7772C0.573349 94.1763 0.0142729 91.3458 0.0292177 87.9054C0.0283329 87.5727 0.0271725 87.24 0.0257617 86.9073C0.0227095 85.9974 0.0235963 85.0876 0.0251614 84.1777C0.0261652 83.1947 0.0235127 82.2117 0.0213458 81.2287C0.017708 79.3046 0.0175275 77.3805 0.0186378 75.4563C0.0194945 73.8919 0.0191875 72.3274 0.0180562 70.763C0.0178977 70.5401 0.0177388 70.3173 0.0175755 70.0877C0.0172511 69.6349 0.0169252 69.1821 0.0165979 68.7293C0.013692 64.4853 0.0148423 60.2413 0.0172725 55.9972C0.0193755 52.1174 0.0166366 48.2376 0.0115689 44.3578C0.00640088 40.371 0.00436926 36.3843 0.00577728 32.3974C0.00651634 30.1604 0.00604683 27.9233 0.00233493 25.6863C-0.000786075 23.7817 -0.000913202 21.8772 0.0027736 19.9727C0.00457379 19.0017 0.00503643 18.0308 0.00178881 17.0598C-0.00115202 16.1695 -0.000124465 15.2792 0.00395714 14.3889C0.00475095 14.0683 0.00414233 13.7476 0.00192211 13.427C-0.0227996 9.58073 1.07116 6.43746 3.7612 3.67619C6.39035 1.11017 9.45006 0.0383618 13.094 0.0561181ZM13.6652 5.22235C13.6652 29.2635 13.6652 53.3047 13.6652 78.0744C32.6745 78.0744 51.6838 78.0744 71.2692 78.0744C71.2938 65.2974 71.2938 65.2974 71.3105 52.5203C71.3122 50.7992 71.3139 49.0782 71.3157 47.3571C71.316 47.0336 71.316 47.0336 71.3164 46.7034C71.3201 43.2179 71.3267 39.7324 71.3345 36.2469C71.3424 32.6716 71.3472 29.0962 71.3489 25.5209C71.35 23.3135 71.3537 21.1062 71.3606 18.8989C71.3651 17.3866 71.3664 15.8743 71.3653 14.362C71.3648 13.4886 71.3656 12.6152 71.3701 11.7419C71.3743 10.9429 71.3745 10.144 71.3716 9.34498C71.371 8.91778 71.3747 8.49059 71.3785 8.06341C71.3768 7.8109 71.3751 7.55839 71.3734 7.29823C71.3737 7.07982 71.374 6.86141 71.3744 6.63637C71.2391 5.90751 71.0142 5.6591 70.4221 5.22235C69.9482 5.09797 69.9482 5.09797 69.4314 5.11811C69.232 5.11643 69.0325 5.11474 68.827 5.113C68.6087 5.11547 68.3904 5.11794 68.1655 5.12048C67.8176 5.11939 67.8176 5.11939 67.4626 5.11828C66.6803 5.11688 65.8981 5.12156 65.1158 5.12618C64.5474 5.12644 63.979 5.12636 63.4107 5.12587C62.0403 5.12542 60.6701 5.12933 59.2998 5.13477C57.715 5.14086 56.1302 5.14154 54.5453 5.14221C50.3604 5.14666 46.1756 5.15848 41.9907 5.1694C32.6433 5.18688 23.2959 5.20435 13.6652 5.22235ZM7.57654 7.41956C5.30358 9.73733 5.12794 12.5552 5.14309 15.6591C5.14273 15.9335 5.14236 16.2079 5.14199 16.4907C5.14105 17.246 5.14273 18.0013 5.14486 18.7567C5.1467 19.5736 5.14607 20.3905 5.14575 21.2074C5.14553 22.6207 5.14685 24.034 5.14924 25.4472C5.15269 27.4905 5.15379 29.5338 5.15432 31.5772C5.15524 34.8927 5.15806 38.2083 5.16207 41.5239C5.16596 44.7436 5.16896 47.9633 5.17076 51.1831C5.17087 51.3817 5.17098 51.5804 5.17109 51.785C5.17165 52.7817 5.17218 53.7783 5.17271 54.7749C5.1771 63.0356 5.18458 71.2962 5.19402 79.5569C6.31222 79.1376 7.43041 78.7182 8.58249 78.2862C8.58249 54.6643 8.58249 31.0425 8.58249 6.7048C8.16449 6.7048 7.85956 7.15037 7.57654 7.41956ZM6.95444 84.9175C5.69954 86.3759 5.31345 87.7252 5.33466 89.6321C5.50482 91.3674 6.38283 92.5408 7.68078 93.646C9.16922 94.6168 10.3957 94.6845 12.1404 94.6739C12.3913 94.6749 12.6422 94.6759 12.9007 94.6769C13.5943 94.679 14.2879 94.6782 14.9816 94.6763C15.7307 94.6748 16.4798 94.677 17.2289 94.6788C18.695 94.6816 20.161 94.681 21.6271 94.6792C22.8181 94.6777 24.0091 94.6775 25.2001 94.6782C25.4545 94.6784 25.4545 94.6784 25.7139 94.6785C26.0583 94.6787 26.4027 94.6789 26.7471 94.6791C29.9751 94.681 33.203 94.6789 36.431 94.6755C39.2026 94.6726 41.9742 94.6731 44.7458 94.676C47.9639 94.6794 51.182 94.6808 54.4001 94.6788C54.7429 94.6786 55.0857 94.6784 55.4285 94.6782C55.6816 94.6781 55.6816 94.6781 55.9397 94.6779C57.1302 94.6774 58.3208 94.6783 59.5114 94.6798C60.9608 94.6816 62.4102 94.6811 63.8596 94.6777C64.5995 94.676 65.3394 94.6754 66.0794 94.6775C66.88 94.6792 67.6805 94.6771 68.4811 94.6739C68.717 94.6753 68.9529 94.6767 69.1959 94.6782C69.5156 94.6757 69.5156 94.6757 69.8418 94.6732C70.0267 94.6731 70.2117 94.673 70.4023 94.6729C70.5486 94.6466 70.6949 94.6203 70.8456 94.5932C71.3286 93.8687 71.3156 93.6017 71.2956 92.7534C71.2918 92.5429 71.288 92.3324 71.2841 92.1156C71.2767 91.8744 71.2767 91.8744 71.2692 91.6283C71.0106 91.6275 71.0106 91.6275 70.7468 91.6268C66.5525 91.6142 62.3581 91.5982 58.1638 91.5784C56.1354 91.5689 54.1071 91.5605 52.0787 91.5549C50.3108 91.5501 48.5429 91.543 46.7749 91.5333C45.8389 91.5282 44.9028 91.5242 43.9667 91.5229C43.0854 91.5216 42.2041 91.5174 41.3228 91.5109C40.9996 91.5091 40.6764 91.5083 40.3532 91.5086C39.9112 91.509 39.4694 91.5055 39.0274 91.501C38.7803 91.5 38.5331 91.499 38.2785 91.498C37.4992 91.4049 36.9921 91.1912 36.3256 90.7812C35.6982 89.84 35.7391 88.9199 35.902 87.8163C36.3683 87.2028 36.7038 86.8859 37.3845 86.5456C37.8298 86.5231 38.2759 86.5145 38.7218 86.5121C38.9299 86.5105 38.9299 86.5105 39.1422 86.5089C39.6092 86.5057 40.0761 86.5039 40.5431 86.5021C40.877 86.5001 41.2109 86.498 41.5448 86.4958C42.4531 86.49 43.3614 86.4856 44.2697 86.4814C45.2183 86.4767 46.1669 86.4709 47.1154 86.4653C48.9125 86.4547 50.7096 86.4452 52.5066 86.436C54.5522 86.4256 56.5977 86.4139 58.6433 86.4022C62.8519 86.3781 67.0605 86.3555 71.2692 86.3338C71.2692 85.2855 71.2692 84.2372 71.2692 83.1571C63.6125 83.1475 55.9558 83.14 48.2991 83.1355C47.3949 83.135 46.4907 83.1344 45.5865 83.1339C45.3165 83.1337 45.3165 83.1337 45.0411 83.1335C42.1274 83.1317 39.2138 83.1283 36.3001 83.1245C33.3099 83.1205 30.3197 83.1181 27.3294 83.1173C25.4847 83.1167 23.6399 83.1149 21.7952 83.1114C20.5298 83.1092 19.2643 83.1085 17.9989 83.1091C17.269 83.1093 16.5392 83.1089 15.8094 83.1066C15.0172 83.1045 14.2249 83.105 13.4327 83.1062C13.0887 83.1043 13.0887 83.1043 12.7378 83.1025C10.4799 83.1114 8.70491 83.4113 6.95444 84.9175Z" fill="#5A3D8B"/>
<path d="M44.7954 16.8059C46.6515 18.0085 47.7533 19.6235 48.8208 21.5288C48.8208 21.6685 48.8208 21.8083 48.8208 21.9523C49.061 21.944 49.061 21.944 49.3061 21.9355C50.0355 21.9134 50.7649 21.8997 51.4945 21.8861C51.7465 21.8773 51.9985 21.8684 52.2581 21.8593C54.3544 21.83 54.3544 21.83 55.113 22.3932C56.1406 23.7032 56.0686 25.0782 56.0346 26.671C56.0327 27.0938 56.0313 27.5165 56.0304 27.9392C56.0274 28.6003 56.0213 29.2607 56.0061 29.9217C55.8392 32.4018 55.8392 32.4018 56.6833 34.6205C57.226 34.996 57.7423 35.2553 58.3509 35.5062C60.068 36.9069 61.3207 38.5478 61.6492 40.78C61.8001 43.0523 61.1946 44.7844 59.7134 46.5204C58.2923 48.0347 58.2923 48.0347 57.5021 48.4206C56.5801 48.8716 56.5801 48.8716 56.0788 49.7242C56.0233 50.2916 56.0206 50.8379 56.0362 51.4078C56.0349 51.6144 56.0336 51.8209 56.0323 52.0336C56.0295 52.6928 56.0382 53.3513 56.0478 54.0104C56.0506 54.6678 56.0511 55.3252 56.0497 55.9826C56.0495 56.3911 56.0522 56.7997 56.0581 57.2081C56.0676 58.6167 56.0124 59.7558 55.113 60.9023C54.0779 61.6709 52.7172 61.4525 51.4945 61.4094C51.2376 61.4047 50.9808 61.3999 50.7161 61.395C50.0841 61.3825 49.4526 61.3651 48.8208 61.3433C48.7687 61.527 48.7165 61.7107 48.6628 61.9C47.945 63.83 46.3627 65.6017 44.5852 66.6377C42.9584 67.2992 40.9625 67.3971 39.3172 66.7304C37.1996 65.5935 35.9926 63.8179 34.8434 61.7668C34.8434 61.6271 34.8434 61.4873 34.8434 61.3433C34.6032 61.3516 34.6032 61.3516 34.3581 61.3601C33.6287 61.3822 32.8993 61.3959 32.1697 61.4094C31.7917 61.4228 31.7917 61.4228 31.4061 61.4363C29.3114 61.4656 29.3114 61.4656 28.538 60.8362C27.9104 60.1018 27.8283 59.7834 27.8306 58.8407C27.8306 58.6287 27.8307 58.4168 27.8307 58.1984C27.8318 57.9689 27.8329 57.7395 27.834 57.5031C27.8343 57.2687 27.8346 57.0342 27.8349 56.7927C27.8361 56.0418 27.8387 55.2908 27.8414 54.5399C27.8425 54.0316 27.8435 53.5234 27.8443 53.0152C27.8467 51.7674 27.8502 50.5196 27.8547 49.2718C27.6885 49.2073 27.5223 49.1428 27.3511 49.0763C25.184 48.1865 23.3264 46.1554 22.365 44.0634C21.7682 42.1779 21.8574 40.3242 22.719 38.5373C23.4063 37.3103 24.1937 36.3492 25.3001 35.4797C25.4767 35.3394 25.6533 35.1991 25.8353 35.0545C27.2348 34.0237 27.2348 34.0237 27.8547 34.0237C27.8523 33.8939 27.85 33.7641 27.8475 33.6303C27.8241 32.2767 27.8081 30.9232 27.7965 29.5694C27.7912 29.0645 27.784 28.5596 27.7748 28.0547C27.7619 27.3282 27.7559 26.6018 27.7513 25.8752C27.7458 25.6501 27.7403 25.4251 27.7347 25.1932C27.734 23.4402 27.734 23.4402 28.3641 22.6601C29.1603 21.9414 29.5288 21.9265 30.583 21.9316C30.83 21.9323 31.0771 21.933 31.3317 21.9337C31.5907 21.9355 31.8498 21.9373 32.1167 21.9391C32.3774 21.94 32.6382 21.941 32.9068 21.942C33.5523 21.9445 34.1978 21.948 34.8434 21.9523C34.9052 21.7556 34.967 21.5589 35.0307 21.3562C35.7013 19.4412 37.3336 17.6752 39.079 16.6578C40.8705 15.9294 43.0678 15.8784 44.7954 16.8059ZM40.8262 22.0714C40.0847 22.9842 39.5715 24.0258 39.056 25.0774C38.6622 25.8617 38.349 26.3685 37.5965 26.8232C37.0921 26.9148 37.0921 26.9148 36.5409 26.9316C36.244 26.9429 36.244 26.9429 35.9412 26.9544C35.7361 26.9591 35.5311 26.9639 35.3199 26.9688C35.1116 26.9761 34.9033 26.9833 34.6887 26.9908C34.1755 27.0082 33.6625 27.0229 33.1492 27.035C33.145 27.2903 33.1408 27.5456 33.1364 27.8086C33.1203 28.7602 33.1015 29.7118 33.0819 30.6633C33.0739 31.0743 33.0665 31.4854 33.0598 31.8964C33.0501 32.4889 33.0378 33.0813 33.0251 33.6738C33.0214 33.9472 33.0214 33.9472 33.0177 34.2262C32.957 36.7295 32.957 36.7295 32.0903 37.6505C31.5452 37.9911 31.0148 38.2624 30.4357 38.5373C29.3 39.0847 28.0133 39.848 27.4311 41.0125C27.3292 41.6385 27.3229 42.0857 27.633 42.6513C28.5352 43.8206 29.7406 44.3765 31.0314 45.0363C31.8816 45.5346 32.5642 45.9596 32.8538 46.9627C32.9723 47.8348 32.9875 48.7011 33.0044 49.5804C33.0088 49.7716 33.0132 49.9629 33.0177 50.1599C33.0315 50.7683 33.044 51.3768 33.0565 51.9853C33.0657 52.3988 33.0749 52.8123 33.0842 53.2257C33.1068 54.2373 33.1283 55.2489 33.1492 56.2606C33.3429 56.2635 33.3429 56.2635 33.5406 56.2666C34.1295 56.278 34.718 56.2957 35.3067 56.3135C35.5099 56.3165 35.7131 56.3195 35.9226 56.3226C36.7918 56.3527 37.4314 56.3858 38.2087 56.7933C38.8169 57.5096 39.2121 58.2776 39.6217 59.1196C40.3151 60.5886 40.3151 60.5886 41.4085 61.7668C41.9375 61.8668 41.9375 61.8668 42.4674 61.555C43.5446 60.4779 44.1858 59.0588 44.8582 57.7124C45.2288 57.0939 45.4611 56.8425 46.0677 56.4723C46.5916 56.3808 46.5916 56.3808 47.1696 56.364C47.3771 56.3565 47.5846 56.349 47.7983 56.3412C48.0134 56.3364 48.2286 56.3317 48.4502 56.3267C48.6686 56.3195 48.887 56.3123 49.112 56.3048C49.6503 56.2874 50.1884 56.2727 50.7268 56.2606C50.728 56.081 50.728 56.081 50.7292 55.8979C50.738 54.6507 50.7527 53.4036 50.7708 52.1566C50.7768 51.6913 50.7812 51.226 50.7842 50.7608C50.7888 50.0914 50.7986 49.4224 50.8096 48.7532C50.8098 48.5455 50.8101 48.3379 50.8103 48.124C50.83 47.2079 50.8494 46.6651 51.334 45.8702C51.8598 45.3926 52.3534 45.1356 53.0035 44.851C54.2257 44.2735 55.6032 43.543 56.2331 42.2831C56.335 41.6571 56.3414 41.2099 56.0312 40.6443C55.129 39.475 53.9236 38.9191 52.6328 38.2593C51.9097 37.8354 51.4138 37.4896 50.9386 36.7769C50.8796 36.3306 50.8796 36.3306 50.8711 35.8105C50.8669 35.6155 50.8627 35.4205 50.8583 35.2196C50.8559 35.0098 50.8534 34.8 50.8509 34.5838C50.8468 34.3685 50.8427 34.1531 50.8385 33.9313C50.8258 33.2429 50.816 32.5546 50.8063 31.8662C50.7982 31.3998 50.7899 30.9334 50.7814 30.4669C50.7611 29.323 50.7431 28.179 50.7268 27.035C50.5234 27.0321 50.5234 27.0321 50.3159 27.029C49.6983 27.0176 49.081 26.9999 48.4634 26.9821C48.2501 26.9791 48.0368 26.9761 47.8169 26.973C46.2309 26.9206 46.2309 26.9206 45.4124 26.4322C44.8926 25.8449 44.6034 25.2475 44.2808 24.5334C43.7329 23.3738 43.2001 22.4103 42.2557 21.5288C41.3792 21.4325 41.3792 21.4325 40.8262 22.0714Z" fill="#5A3D8B"/>
</svg>
