<svg width="24" height="18" viewBox="0 0 24 18" fill="none" xmlns="http://www.w3.org/2000/svg">
<path d="M8.57978 0.326046C8.62611 0.392829 8.62611 0.392829 8.67338 0.460962C8.72936 0.446121 8.78534 0.43128 8.84302 0.41599C9.32083 0.316204 9.78415 0.320754 10.2177 0.550906C10.5148 0.737115 10.6602 0.985138 10.7325 1.31543C10.736 1.42031 10.737 1.52538 10.7325 1.63023C10.7673 1.64183 10.802 1.65342 10.8378 1.66537C11.1707 1.80715 11.372 2.09937 11.5277 2.40442C11.6531 2.73738 11.6741 3.03293 11.6568 3.38413C11.6481 3.70284 11.6609 3.9249 11.8787 4.18168C11.9459 4.24824 11.9459 4.24824 12.0429 4.2386C12.2071 4.10612 12.3122 3.94139 12.3343 3.73438C12.3381 3.57923 12.3336 3.42486 12.3285 3.26977C12.3195 2.97083 12.347 2.71984 12.4641 2.43973C12.4765 2.40778 12.489 2.37584 12.5019 2.34293C12.6297 2.05849 12.857 1.79234 13.1545 1.66501C13.1892 1.65354 13.2239 1.64206 13.2596 1.63023C13.2567 1.58571 13.2538 1.54119 13.2509 1.49532C13.2509 1.29552 13.3154 1.13587 13.4 0.955653C13.4174 0.916696 13.4348 0.877739 13.4527 0.837601C13.6503 0.597047 13.9377 0.449506 14.2424 0.371018C14.613 0.342629 14.961 0.366108 15.3188 0.460962C15.3535 0.410874 15.3535 0.410874 15.389 0.359775C15.6071 0.129227 15.8939 0.024593 16.2138 0C16.8812 0.0413791 17.3685 0.398285 17.7991 0.865709C18.1092 1.22838 18.3912 1.61166 18.6725 1.99512C18.7378 2.08363 18.8036 2.17167 18.8696 2.25966C19.2742 2.80137 19.6439 3.36095 20.0051 3.9301C20.0566 4.01121 20.1082 4.09228 20.1597 4.17335C20.2271 4.27936 20.2942 4.38557 20.3611 4.49191C20.3917 4.54014 20.4223 4.58838 20.4538 4.63808C20.4811 4.68139 20.5084 4.7247 20.5366 4.76933C20.5983 4.8731 20.5983 4.8731 20.7006 4.91318C20.7165 4.88709 20.7325 4.861 20.7489 4.83413C20.9644 4.50033 21.2257 4.25104 21.6207 4.12477C21.9113 4.06881 22.2122 4.06769 22.4965 4.14866C22.9652 4.49179 23.0804 4.85731 23.1585 5.39856C23.1994 5.72063 23.2131 6.04502 23.2319 6.36882C23.3481 8.32141 23.6022 10.2841 23.9567 12.2101C24.1658 13.5105 23.5863 14.5438 22.9001 15.6165C22.8403 15.711 22.7804 15.8056 22.7206 15.9002C22.3859 16.4276 22.0457 16.95 21.6834 17.4603C21.6267 17.5418 21.5702 17.6233 21.5137 17.7049C21.4767 17.7583 21.4396 17.8117 21.4026 17.8651C21.3362 17.8306 21.2699 17.7959 21.2037 17.7611C21.1668 17.7418 21.1299 17.7225 21.0918 17.7026C20.9862 17.6429 20.8906 17.5778 20.7942 17.5053C20.8206 17.3257 20.876 17.2121 20.983 17.0635C21.0277 17.0006 21.0277 17.0006 21.0733 16.9364C21.1057 16.8913 21.1381 16.8462 21.1715 16.7998C22.5261 14.8801 23.3771 13.578 23.0107 11.2518C22.7456 9.56535 22.526 7.88207 22.4356 6.17766C22.423 5.55021 22.423 5.55021 22.245 4.95815C22.1374 4.87008 22.1374 4.87008 22.011 4.82324C21.7286 4.90077 21.5419 5.03006 21.3913 5.2791C20.8874 6.26096 20.7433 7.47691 20.6538 8.5559C20.6477 8.6212 20.6477 8.6212 20.6414 8.68782C20.5938 9.257 20.6019 9.82634 20.6041 10.3969C20.6043 10.5022 20.6045 10.6075 20.6047 10.7127C20.6052 10.9682 20.606 11.2236 20.607 11.4791C20.5718 11.4789 20.5366 11.4786 20.5004 11.4784C20.4542 11.4783 20.4079 11.4781 20.3603 11.4779C20.3145 11.4777 20.2687 11.4775 20.2215 11.4773C19.267 11.4906 18.4832 12.0652 17.8459 12.6933C17.815 12.6785 17.7841 12.6636 17.7523 12.6483C18.3353 11.9932 19.0106 11.4177 19.905 11.2092C20.0292 11.2005 20.0292 11.2005 20.1361 11.2036C20.1722 11.2044 20.2084 11.2052 20.2456 11.2061C20.2722 11.2071 20.2988 11.2082 20.3262 11.2092C20.32 11.1679 20.3138 11.1265 20.3074 11.0838C20.2991 11.0269 20.2909 10.97 20.2823 10.9113C20.2742 10.856 20.2661 10.8007 20.2577 10.7437C20.1819 10.1506 20.1748 9.55734 20.1741 8.96065C20.174 8.89586 20.174 8.89586 20.1738 8.82976C20.1734 8.02672 20.2123 7.23061 20.3506 6.43711C20.4197 6.03682 20.3431 5.85183 20.1127 5.5203C20.0561 5.43593 19.9996 5.35155 19.9431 5.26716C19.8987 5.20184 19.8987 5.20184 19.8535 5.13521C19.7675 5.00741 19.6838 4.87855 19.6008 4.74893C18.4472 2.94228 18.4472 2.94228 17.0971 1.27046C17.0695 1.23962 17.0419 1.20877 17.0134 1.177C16.8231 0.978268 16.6219 0.846834 16.3483 0.775765C16.1699 0.763205 16.1699 0.763205 16.0208 0.820737C15.8308 1.05035 15.8705 1.2746 15.8977 1.55065C15.9907 2.29115 16.2212 2.97521 16.5355 3.65397C16.559 3.7058 16.559 3.7058 16.583 3.75869C17.0195 4.71523 17.6122 5.59613 18.1834 6.4821C18.2119 6.52659 18.2405 6.57107 18.27 6.61691C18.3353 6.71784 18.4012 6.81825 18.4678 6.9184C18.4854 6.94511 18.503 6.97181 18.5211 6.99932C18.5706 7.07451 18.6204 7.14949 18.6703 7.22446C18.6917 7.26313 18.713 7.30181 18.7351 7.34166C18.7196 7.37134 18.7042 7.40102 18.6883 7.4316C18.4548 7.13849 18.4548 7.13849 18.3488 7.00505C18.1978 6.81499 18.0464 6.62525 17.8942 6.43607C17.4843 5.92523 17.0936 5.40586 16.7227 4.86821C16.7029 4.83966 16.6831 4.81111 16.6627 4.78169C16.0686 3.92359 15.4565 2.96202 15.2743 1.93221C15.267 1.8915 15.2597 1.85078 15.2521 1.80883C15.2383 1.72871 15.2259 1.64837 15.215 1.56783C15.1969 1.46035 15.1784 1.36966 15.1316 1.27046C14.8762 1.11824 14.6285 1.09939 14.336 1.13554C14.1589 1.21172 14.1589 1.21172 14.0552 1.3604C14.0337 1.66419 14.0966 1.92111 14.1839 2.21205C14.1984 2.26059 14.2128 2.30912 14.2277 2.35912C14.7363 4.01929 15.4355 5.69759 16.2717 7.22993C16.297 7.28164 16.3223 7.33336 16.3483 7.38663C16.3329 7.41631 16.3175 7.446 16.3015 7.47658C15.9397 6.97193 15.6328 6.43534 15.3188 5.90256C15.292 5.85733 15.2652 5.8121 15.2376 5.76549C14.586 4.65962 14.054 3.50964 13.634 2.30481C13.4064 2.38181 13.3302 2.45853 13.2128 2.66458C13.0417 3.08396 13.1078 3.5154 13.2304 3.93785C13.2428 3.98183 13.2553 4.02582 13.2681 4.07113C13.6168 5.27228 14.0799 6.42993 14.607 7.56828C14.6203 7.59731 14.6337 7.62634 14.6474 7.65624C14.684 7.73596 14.7211 7.8155 14.7582 7.89503C14.7733 7.93503 14.7884 7.97503 14.804 8.01624C14.7885 8.04592 14.7731 8.0756 14.7572 8.10618C14.1461 7.11162 13.5785 6.08824 13.0929 5.03123C13.0714 4.98449 13.05 4.93775 13.0278 4.8896C12.8852 4.57153 12.8852 4.57153 12.8852 4.41849C12.8544 4.41849 12.8235 4.41849 12.7916 4.41849C12.278 5.63249 12.6137 6.75656 13.1192 7.9263C13.3845 8.52623 13.6791 9.11041 14.0097 9.67966C14.258 10.1191 14.409 10.576 14.2892 11.0743C14.1295 11.5028 13.9089 11.9088 13.6942 12.3136C13.1484 13.3764 13.3359 14.4642 13.7146 15.5503C13.9444 16.1647 14.2456 16.84 14.6259 17.3818C14.7104 17.5053 14.7104 17.5053 14.715 17.6016C14.6375 17.7276 14.5329 17.7794 14.4033 17.8538C14.3559 17.8814 14.3086 17.909 14.2598 17.9375C14.2232 17.9581 14.1865 17.9787 14.1488 18C13.9119 17.7912 13.7911 17.5326 13.6457 17.2608C13.6312 17.2337 13.6167 17.2067 13.6017 17.1789C13.3382 16.6864 13.1148 16.1869 12.932 15.6615C12.9144 15.612 12.9144 15.612 12.8965 15.5615C12.4627 14.3254 12.411 13.0752 13.0222 11.8865C13.0705 11.7938 13.1191 11.7013 13.1678 11.6089C13.2644 11.4253 13.3608 11.2418 13.4498 11.0547C13.4686 11.0158 13.4875 10.9769 13.507 10.9368C13.6174 10.5 13.3804 10.1544 13.1714 9.78377C13.0784 9.61854 12.9879 9.45209 12.8973 9.28564C12.8796 9.2532 12.8619 9.22075 12.8437 9.18733C12.6451 8.82145 12.4742 8.4476 12.3237 8.06121C12.3099 8.02596 12.2961 7.99072 12.2819 7.9544C12.0429 7.33767 12.0429 7.33767 12.0429 7.16177C12.012 7.16177 11.9811 7.16177 11.9493 7.16177C11.9417 7.19846 11.9417 7.19846 11.934 7.23589C11.8786 7.49178 11.8032 7.73273 11.7065 7.97689C11.6909 8.01628 11.6753 8.05568 11.6593 8.09627C11.4528 8.60091 11.2009 9.08573 10.9517 9.57181C10.9376 9.59951 10.9235 9.62722 10.909 9.65576C10.8368 9.79679 10.7624 9.93579 10.683 10.0732C10.4668 10.4385 10.4668 10.4385 10.4644 10.8455C10.5286 11.0224 10.6061 11.1885 10.6945 11.3554C10.7329 11.4308 10.7713 11.5061 10.8097 11.5815C10.8463 11.6523 10.883 11.7231 10.9197 11.7939C11.6135 13.14 11.4991 14.3916 11.0243 15.7811C10.8782 16.1896 10.6991 16.5794 10.4985 16.9656C10.4783 17.0047 10.4581 17.0438 10.4373 17.0841C10.3756 17.2024 10.313 17.3202 10.2499 17.4379C10.2308 17.4736 10.2117 17.5094 10.192 17.5463C10.0945 17.7233 10.0037 17.8674 9.84334 18C9.7581 17.952 9.67337 17.9031 9.58887 17.8538C9.51802 17.8131 9.51802 17.8131 9.44573 17.7716C9.32856 17.6852 9.32856 17.6852 9.2792 17.6014C9.28316 17.4526 9.35526 17.3638 9.43678 17.2383C10.2199 15.9812 10.9188 14.3747 10.5462 12.8919C10.4675 12.6385 10.3483 12.4084 10.2236 12.1733C9.55332 10.8859 9.55332 10.8859 9.74206 10.1949C9.83643 9.92656 9.97747 9.68246 10.1178 9.43442C10.6637 8.46574 11.1158 7.4709 11.3877 6.39725C11.4062 6.32577 11.4062 6.32577 11.4252 6.25285C11.5724 5.59638 11.4593 5.03011 11.2005 4.41849C11.1696 4.41849 11.1387 4.41849 11.1069 4.41849C11.1017 4.44991 11.0965 4.48132 11.0911 4.51369C11.0563 4.65906 11.0024 4.78286 10.9389 4.91898C10.914 4.97248 10.8891 5.02598 10.8635 5.0811C10.8364 5.1385 10.8093 5.1959 10.7822 5.25328C10.7685 5.28249 10.7548 5.3117 10.7406 5.3418C10.293 6.29297 9.79615 7.21181 9.23496 8.10618C9.21951 8.0765 9.20407 8.04682 9.18816 8.01624C9.22589 7.9149 9.26664 7.81889 9.3121 7.72076C9.32557 7.69087 9.33905 7.66099 9.35293 7.63019C9.382 7.5657 9.41123 7.50128 9.44058 7.4369C9.51772 7.26747 9.59347 7.09747 9.66912 6.92743C9.68424 6.89347 9.69936 6.85951 9.71493 6.82452C9.91492 6.37326 10.0941 5.91509 10.2645 5.45284C10.2793 5.41304 10.294 5.37323 10.3092 5.33222C10.4751 4.88077 10.6222 4.42515 10.753 3.96315C10.7712 3.90084 10.7712 3.90084 10.7898 3.83727C10.905 3.41479 10.9443 2.97532 10.7325 2.57464C10.6093 2.43253 10.5403 2.36318 10.3581 2.30481C10.343 2.34742 10.343 2.34742 10.3276 2.39089C10.068 3.11793 9.76954 3.81618 9.42215 4.50843C9.40608 4.54076 9.39 4.57308 9.37343 4.60639C8.98147 5.39149 8.54581 6.16071 8.08254 6.90881C8.05988 6.94566 8.03721 6.98252 8.01385 7.02049C7.90557 7.1927 7.80284 7.3424 7.64381 7.47658C7.70904 7.27133 7.79626 7.08465 7.89919 6.89493C7.93203 6.83337 7.96485 6.77179 7.99763 6.7102C8.01482 6.67801 8.03201 6.64581 8.04972 6.61265C8.45489 5.85131 8.81626 5.07945 9.14136 4.28357C9.16162 4.23404 9.18187 4.18451 9.20274 4.13348C9.49157 3.41778 9.7025 2.69064 9.89014 1.94503C9.89896 1.91218 9.90779 1.87933 9.91688 1.84548C9.96195 1.66493 9.95991 1.47528 9.90184 1.29856C9.82839 1.20681 9.76732 1.17966 9.65615 1.13554C9.54616 1.11972 9.54616 1.11972 9.43093 1.12149C9.39298 1.12073 9.35504 1.11998 9.31594 1.1192C9.13057 1.1429 9.01932 1.17102 8.86057 1.27046C8.79135 1.43115 8.76961 1.59657 8.74357 1.76796C8.40966 3.56598 7.17741 5.06589 6.04809 6.48245C5.79744 6.79698 5.55055 7.1142 5.30388 7.4316C5.28843 7.40192 5.27299 7.37224 5.25708 7.34166C5.30167 7.24991 5.30167 7.24991 5.37243 7.137C5.3981 7.09567 5.42378 7.05433 5.45023 7.01174C5.47818 6.96757 5.50614 6.9234 5.53495 6.87789C5.56318 6.83265 5.5914 6.7874 5.62049 6.74079C5.76368 6.5118 5.9088 6.28403 6.05558 6.05715C7.49603 3.83233 7.49603 3.83233 8.07377 1.31262C8.07443 1.2583 8.0751 1.20398 8.07578 1.14801C8.06561 1.00909 8.05533 0.932747 7.9714 0.820737C7.75397 0.746739 7.62475 0.76964 7.41566 0.860087C6.88065 1.1458 6.54207 1.6573 6.19305 2.12492C6.1669 2.15993 6.14075 2.19494 6.1138 2.23101C5.50918 3.04395 4.95018 3.8838 4.40282 4.73312C4.28664 4.91313 4.16824 5.09149 4.04781 5.26891C4.01946 5.31127 3.99111 5.35362 3.96189 5.39725C3.90851 5.47692 3.8545 5.5562 3.79974 5.635C3.64803 5.86349 3.58124 6.03332 3.61913 6.30731C3.62356 6.34545 3.62799 6.38358 3.63256 6.42288C3.64872 6.55235 3.66724 6.68134 3.6864 6.81043C3.78862 7.50463 3.81572 8.18741 3.8151 8.88757C3.81512 8.93138 3.81514 8.9752 3.81515 9.02034C3.81479 9.7546 3.80054 10.4844 3.66593 11.2092C3.72384 11.2055 3.78176 11.2018 3.84142 11.198C4.65372 11.2029 5.35276 11.7755 5.91226 12.2886C6.02757 12.4044 6.13709 12.5221 6.23985 12.6483C6.09945 12.6483 6.09945 12.6483 6.03712 12.5953C6.00282 12.5576 6.00282 12.5576 5.96783 12.519C5.42108 11.9726 4.68563 11.5696 3.89992 11.4791C3.81051 11.4777 3.72108 11.4774 3.63166 11.4778C3.58545 11.478 3.53924 11.4782 3.49163 11.4784C3.45649 11.4786 3.42135 11.4788 3.38514 11.4791C3.38535 11.4534 3.38555 11.4277 3.38577 11.4013C3.41866 9.75021 3.41866 9.75021 3.29154 8.10618C3.28374 8.05005 3.27595 7.99391 3.26791 7.93607C3.09191 6.61382 3.09191 6.61382 2.63929 5.3629C2.6247 5.33351 2.61011 5.30411 2.59508 5.27383C2.48788 5.07679 2.36936 4.97528 2.16837 4.86821C2.00568 4.81981 1.90869 4.82531 1.74719 4.86821C1.61693 5.34558 1.57911 5.80602 1.555 6.29669C1.5103 7.17358 1.42613 8.04413 1.31723 8.91568C1.30692 8.99833 1.30692 8.99833 1.2964 9.08265C1.21729 9.71069 1.12965 10.3372 1.0326 10.963C1.02386 11.0195 1.01511 11.076 1.00611 11.1342C0.964209 11.4038 0.921343 11.6731 0.87681 11.9423C0.595526 13.6774 1.58442 15.0304 2.5607 16.4286C2.63506 16.5352 2.70903 16.642 2.78302 16.7487C2.83746 16.8269 2.89256 16.9046 2.94769 16.9822C2.98087 17.03 3.01404 17.0778 3.04822 17.1271C3.07823 17.1697 3.10823 17.2123 3.13914 17.2562C3.19794 17.3704 3.19794 17.3704 3.19123 17.4701C3.12653 17.5995 3.01679 17.6466 2.89083 17.7189C2.84347 17.7465 2.79612 17.7741 2.74732 17.8025C2.71071 17.8232 2.67409 17.8438 2.63636 17.8651C2.46672 17.7177 2.35285 17.5485 2.23565 17.362C2.19427 17.2972 2.15283 17.2324 2.11134 17.1677C2.08998 17.1343 2.06863 17.101 2.04663 17.0666C1.94058 16.903 1.83058 16.7419 1.72086 16.5806C1.48659 16.2341 1.26156 15.8836 1.04521 15.5265C1.00951 15.4679 1.00951 15.4679 0.973092 15.408C-0.00437951 13.7957 -0.00437953 13.7957 0.000650898 12.8869C0.000827635 12.8419 0.00100437 12.7968 0.00118646 12.7504C0.00784183 12.3196 0.0657391 11.9025 0.139613 11.4782C0.179103 11.2505 0.215476 11.0224 0.252193 10.7943C0.259832 10.7472 0.267471 10.7001 0.275341 10.6516C0.519152 9.13451 0.691063 7.6039 0.788549 6.07173C0.790504 6.04179 0.79246 6.01185 0.794475 5.98101C0.803614 5.84103 0.812205 5.70108 0.81958 5.56101C0.850397 5.06081 0.947828 4.67628 1.29968 4.29482C1.54635 4.08668 1.7878 4.08412 2.10494 4.08963C2.48318 4.12348 2.80475 4.28088 3.05755 4.5534C3.14347 4.6695 3.22004 4.78843 3.29154 4.91318C3.48976 4.74825 3.60343 4.54372 3.7332 4.32854C4.00379 3.88746 4.28951 3.45749 4.58298 3.0302C4.63858 2.94916 4.69378 2.86786 4.74888 2.7865C5.00662 2.40874 5.28271 2.04376 5.56011 1.6792C5.62243 1.59716 5.68432 1.51485 5.74609 1.43243C6.20768 0.825597 6.70606 0.23659 7.48586 0.0224859C7.92184 -0.0216156 8.23123 0.0708512 8.57978 0.326046Z" fill="#636363"/>
</svg>
