<svg width="20" height="20" viewBox="0 0 20 20" fill="none" xmlns="http://www.w3.org/2000/svg">
<path d="M10.5882 17.5996L10.2281 11.916C10.2281 11.5556 10.363 11.3851 10.5724 11.1727L12.159 9.80307C12.6735 9.35941 12.6017 8.92183 12.5903 8.7309L12.3183 4.15142C12.3004 3.84737 12.0752 3.59961 11.7744 3.59961C11.4736 3.59961 11.2305 3.84682 11.2305 4.15142V8.0141C11.2305 8.16045 11.1732 8.3008 11.0712 8.40429C10.9692 8.50777 10.8309 8.56591 10.6866 8.56591C10.5423 8.56591 10.404 8.50777 10.302 8.40429C10.2 8.3008 10.1427 8.16045 10.1427 8.0141V4.15142C10.1427 4.00507 10.0854 3.86472 9.98338 3.76123C9.88138 3.65775 9.74303 3.59961 9.59877 3.59961C9.45452 3.59961 9.31617 3.65775 9.21417 3.76123C9.11216 3.86472 9.05486 4.00507 9.05486 4.15142V8.0141C9.05486 8.16045 8.99755 8.3008 8.89555 8.40429C8.79355 8.50777 8.6552 8.56591 8.51094 8.56591C8.36669 8.56591 8.22834 8.50777 8.12634 8.40429C8.02433 8.3008 7.96703 8.16045 7.96703 8.0141V4.15142C7.96703 3.84682 7.7239 3.59961 7.42311 3.59961C7.12233 3.59961 6.89769 3.84737 6.8792 4.15142L6.60724 8.73145C6.59582 8.92845 6.54415 9.37431 7.03857 9.80362L8.61646 11.1732C8.78888 11.3476 8.91562 11.6522 8.91562 11.9165L8.60232 17.5991" stroke="#636363" stroke-width="0.8" stroke-linecap="round" stroke-linejoin="round"/>
<path d="M9.7001 18.7996C14.7259 18.7996 18.8001 14.7254 18.8001 9.69961C18.8001 4.67382 14.7259 0.599609 9.7001 0.599609C4.67431 0.599609 0.600098 4.67382 0.600098 9.69961C0.600098 14.7254 4.67431 18.7996 9.7001 18.7996Z" stroke="#636363" stroke-width="1.2" stroke-linecap="round" stroke-linejoin="round"/>
<path d="M4.22008 14.9839C4.06219 14.8314 3.8507 14.7471 3.63119 14.749C3.41168 14.7509 3.20169 14.8389 3.04647 14.9941C2.89124 15.1494 2.8032 15.3593 2.80129 15.5789C2.79938 15.7984 2.94759 15.9417 3.1001 16.0996M9.40032 0.803711C9.17828 0.803711 8.96533 0.891917 8.80832 1.04892C8.65131 1.20593 8.56311 1.41888 8.56311 1.64092C8.56311 1.86296 8.65131 2.07591 8.80832 2.23292C8.96533 2.38992 9.17828 2.47813 9.40032 2.47813" stroke="#636363" stroke-width="0.7" stroke-linecap="round" stroke-linejoin="round"/>
</svg>
