<svg width="20" height="20" viewBox="0 0 20 20" fill="none" xmlns="http://www.w3.org/2000/svg">
<path d="M3.60007 18.5996C1.9501 18.5996 0.600098 17.9461 0.600098 16.2962V2.67653C0.600098 1.53422 1.53471 0.599609 2.67702 0.599609H16.5232C17.6655 0.599609 18.6001 1.53422 18.6001 2.67653V15.5996C18.6001 17.2496 17.2501 18.5996 15.6001 18.5996V17.5434C14.7599 16.8473 14.4285 16.7051 14.4285 16.7051C14.4285 16.7051 15.4832 15.8544 15.7422 15.4895C16.3071 14.6936 17.7243 11.3046 14.7254 9.19302C13.6506 8.43619 10.3573 6.8967 10.3573 6.8967C9.6397 5.17867 9.57614 4.44289 9.60017 2.62406C9.62419 4.44289 9.56064 5.17867 8.84306 6.8967C8.84306 6.8967 5.54982 8.43626 4.47494 9.19302C1.47607 11.3046 2.89323 14.6935 3.45815 15.4895C3.71714 15.8543 4.77181 16.7051 4.77181 16.7051C4.77181 16.7051 4.44033 16.8473 3.60021 17.5434L3.60007 18.5996Z" stroke="#636363" stroke-width="1.2" stroke-linecap="round" stroke-linejoin="round"/>
</svg>
