<svg width="18" height="18" viewBox="0 0 18 18" fill="none" xmlns="http://www.w3.org/2000/svg">
<path d="M12.5364 9.46826C12.2121 9.73673 11.9345 10.0364 11.7037 10.3673C11.1861 10.1051 10.6466 9.91155 10.0852 9.78668C9.52391 9.66181 8.9501 9.59625 8.36383 9.59001C7.69023 9.59001 7.04782 9.6743 6.43659 9.84287C5.82536 10.0114 5.25156 10.2487 4.71518 10.5546C4.17879 10.8606 3.69854 11.232 3.27443 11.6691C2.85031 12.1061 2.47921 12.59 2.16112 13.1207C1.84304 13.6514 1.60603 14.2289 1.4501 14.8533C1.29418 15.4776 1.20998 16.1207 1.19751 16.7825H0C0 15.871 0.134096 14.9938 0.402287 14.1509C0.670478 13.308 1.05717 12.5369 1.56237 11.8377C2.06757 11.1384 2.66944 10.5265 3.36798 10.0021C4.06653 9.47763 4.85863 9.07492 5.74428 8.79396C5.40748 8.5692 5.10811 8.31009 4.84615 8.01665C4.5842 7.72321 4.35967 7.40479 4.17256 7.06139C3.98545 6.718 3.842 6.35588 3.7422 5.97503C3.64241 5.59417 3.59252 5.20083 3.59252 4.79501C3.59252 4.13319 3.71726 3.51197 3.96674 2.93132C4.21622 2.35068 4.55925 1.84495 4.99584 1.41415C5.43243 0.983351 5.94075 0.639958 6.52079 0.383975C7.10083 0.127992 7.72141 0 8.38254 0C9.04366 0 9.66424 0.12487 10.2443 0.37461C10.8243 0.62435 11.3295 0.967742 11.7599 1.40479C12.1902 1.84183 12.5333 2.35068 12.789 2.93132C13.0447 3.51197 13.1726 4.13319 13.1726 4.79501C13.1726 5.20083 13.1227 5.59417 13.0229 5.97503C12.9231 6.35588 12.7827 6.72112 12.6019 7.07076C12.421 7.4204 12.1933 7.73881 11.9189 8.02601C11.6445 8.31322 11.342 8.57232 11.0114 8.80333C11.2796 8.89074 11.5385 8.98751 11.7879 9.09365C12.0374 9.19979 12.2869 9.32466 12.5364 9.46826ZM4.79002 4.79501C4.79002 5.29449 4.88358 5.75963 5.07069 6.19043C5.2578 6.62123 5.51351 7.00208 5.83784 7.33299C6.16216 7.66389 6.54262 7.923 6.97921 8.1103C7.4158 8.29761 7.88358 8.39126 8.38254 8.39126C8.87526 8.39126 9.33992 8.29761 9.77651 8.1103C10.2131 7.923 10.5936 7.66701 10.9179 7.34235C11.2422 7.01769 11.501 6.63684 11.6944 6.19979C11.8877 5.76275 11.9813 5.29449 11.9751 4.79501C11.9751 4.30177 11.8815 3.83663 11.6944 3.39958C11.5073 2.96254 11.2516 2.58169 10.9272 2.25702C10.6029 1.93236 10.2193 1.67326 9.77651 1.47971C9.33368 1.28616 8.86902 1.19251 8.38254 1.19875C7.88358 1.19875 7.41892 1.2924 6.98857 1.47971C6.55821 1.66701 6.17775 1.923 5.84719 2.24766C5.51663 2.57232 5.2578 2.9563 5.07069 3.39958C4.88358 3.84287 4.79002 4.30801 4.79002 4.79501ZM14.9875 9.58065C15.3992 9.58065 15.789 9.65869 16.157 9.81478C16.5249 9.97086 16.843 10.1863 17.1112 10.461C17.3794 10.7357 17.5946 11.0541 17.7568 11.4162C17.9189 11.7784 18 12.1686 18 12.5869C18 12.999 17.922 13.3861 17.7661 13.7482C17.6102 14.1103 17.395 14.4287 17.1206 14.7034C16.8462 14.9781 16.5249 15.1935 16.157 15.3496C15.789 15.5057 15.3992 15.5869 14.9875 15.5931C14.3825 15.5931 13.8306 15.4246 13.3316 15.0874L10.5998 17.8221C10.4813 17.9407 10.341 18 10.1788 18C10.0166 18 9.8763 17.9407 9.7578 17.8221C9.63929 17.7034 9.58004 17.563 9.58004 17.4006C9.58004 17.2383 9.63929 17.0978 9.7578 16.9792L12.4896 14.2445C12.1528 13.7451 11.9844 13.1925 11.9844 12.5869C11.9844 12.1748 12.0624 11.7877 12.2183 11.4256C12.3742 11.0635 12.5894 10.7451 12.8638 10.4703C13.1383 10.1956 13.4563 9.98023 13.8181 9.82414C14.1798 9.66805 14.5696 9.58689 14.9875 9.58065ZM14.9875 14.3944C15.237 14.3944 15.4709 14.3476 15.6892 14.2539C15.9075 14.1602 16.0977 14.0323 16.2599 13.8699C16.422 13.7076 16.553 13.514 16.6528 13.2893C16.7526 13.0645 16.8025 12.8304 16.8025 12.5869C16.8025 12.3371 16.7557 12.103 16.6622 11.8845C16.5686 11.666 16.4376 11.4755 16.2692 11.3132C16.1008 11.1509 15.9106 11.0198 15.6985 10.9199C15.4865 10.82 15.2495 10.7732 14.9875 10.7794C14.738 10.7794 14.5042 10.8262 14.2859 10.9199C14.0676 11.0135 13.8773 11.1446 13.7152 11.3132C13.553 11.4818 13.422 11.6722 13.3222 11.8845C13.2225 12.0968 13.1757 12.3309 13.1819 12.5869C13.1819 12.8366 13.2287 13.0708 13.3222 13.2893C13.4158 13.5078 13.5437 13.6982 13.7058 13.8606C13.868 14.0229 14.0613 14.154 14.2859 14.2539C14.5104 14.3538 14.7443 14.4006 14.9875 14.3944Z" fill="#636363"/>
</svg>
