<svg width="22" height="18" viewBox="0 0 22 18" fill="none" xmlns="http://www.w3.org/2000/svg">
<path d="M5.0281 0.0483284C5.18684 0.090284 5.34332 0.136716 5.5 0.185516C5.55784 0.203275 5.61568 0.221034 5.67528 0.23933C7.21519 0.726057 8.69832 1.4299 9.92131 2.47793C9.98846 2.53527 9.98846 2.53527 10.057 2.59377C10.7477 3.19268 10.7477 3.19268 10.9488 3.48145C11.1191 3.42601 11.1527 3.38731 11.2634 3.25566C12.62 1.70483 15.1229 0.228113 17.2276 0.00735213C17.538 -0.00251399 17.538 -0.00251399 17.7012 0.0914361C17.7812 0.219575 17.8069 0.308655 17.8378 0.45384C17.8466 0.494593 17.8554 0.535345 17.8645 0.577332C17.871 0.60844 17.8775 0.639547 17.8842 0.671596C17.9313 0.670545 17.9785 0.669494 18.0271 0.668411C18.2025 0.664986 18.3779 0.662472 18.5533 0.660571C18.6291 0.659563 18.705 0.658195 18.7808 0.656455C18.89 0.654014 18.9991 0.652881 19.1083 0.651996C19.2068 0.65042 19.2068 0.65042 19.3072 0.648811C19.5147 0.676698 19.5538 0.713922 19.6822 0.8723C19.7304 1.00159 19.7682 1.12233 19.8016 1.25514C19.812 1.29382 19.8223 1.33251 19.833 1.37236C19.8673 1.50161 19.9007 1.63108 19.9341 1.76057C19.9584 1.85291 19.9829 1.94523 20.0074 2.03753C20.0734 2.287 20.1385 2.53666 20.2035 2.78638C20.2713 3.04626 20.3399 3.30596 20.4084 3.56566C20.4928 3.88574 20.5772 4.20582 20.6613 4.52599C20.8499 5.24395 21.0419 5.96098 21.2365 6.67743C21.2619 6.77118 21.2873 6.86493 21.3127 6.95868C21.4094 7.31502 21.506 7.67137 21.6033 8.02753C21.6594 8.23279 21.7151 8.43814 21.7705 8.64356C21.7908 8.71837 21.8112 8.79314 21.8318 8.86788C21.8597 8.96955 21.8872 9.07134 21.9146 9.17317C21.9377 9.25825 21.9377 9.25825 21.9614 9.34504C22.006 9.56024 22.0308 9.73252 21.9279 9.93154C21.7141 10.1202 21.4668 10.2093 21.2024 10.316C21.1436 10.3403 21.0849 10.3647 21.0244 10.3898C20.8658 10.4554 20.7071 10.5203 20.5481 10.585C20.3835 10.6523 20.2192 10.7203 20.0549 10.7882C19.7939 10.8961 19.5328 11.0035 19.2716 11.1107C18.8478 11.2847 18.4254 11.4616 18.0032 11.6392C17.3826 11.9001 16.7609 12.1583 16.1375 12.4128C16.2756 12.5917 16.4169 12.7318 16.5966 12.8706C16.6712 12.929 16.6712 12.929 16.7473 12.9886C16.7736 13.0091 16.7998 13.0297 16.8268 13.0508C16.9671 13.162 17.1044 13.2767 17.242 13.3912C17.487 13.5945 17.7341 13.7948 17.9833 13.9931C18.3281 14.2678 18.6715 14.5442 19.0144 14.8212C19.0478 14.8481 19.0811 14.875 19.1155 14.9026C19.2072 14.9766 19.2987 15.051 19.3901 15.1254C19.4418 15.1674 19.4935 15.2094 19.5468 15.2526C19.8969 15.5642 19.8969 15.5642 19.9135 15.8374C19.9145 15.9215 19.9143 16.0056 19.9132 16.0897C19.9133 16.1345 19.9134 16.1792 19.9134 16.2252C19.9134 16.3195 19.9128 16.4138 19.9117 16.5081C19.9102 16.6522 19.9106 16.7961 19.9113 16.9402C19.911 17.032 19.9106 17.1238 19.91 17.2156C19.9102 17.2585 19.9103 17.3014 19.9105 17.3456C19.9067 17.5814 19.8912 17.7412 19.7336 17.9321C19.5279 18.0326 19.307 18.0083 19.0931 17.9446C18.9474 17.8889 18.8044 17.8289 18.6614 17.7669C18.5802 17.7328 18.5802 17.7328 18.4974 17.698C18.3195 17.6231 18.142 17.5471 17.9644 17.4711C17.8393 17.4182 17.714 17.3654 17.5888 17.3126C17.3318 17.2042 17.075 17.0954 16.8184 16.9864C16.3261 16.7772 15.8326 16.5711 15.339 16.3649C15.1358 16.28 14.9327 16.1949 14.7295 16.1098C14.4625 15.998 14.1955 15.8863 13.9284 15.7746C13.8372 15.7364 13.8372 15.7364 13.7441 15.6974C13.3894 15.5491 13.0347 15.4008 12.6798 15.2529C12.5236 15.1877 12.3674 15.1225 12.2112 15.0572C12.0384 14.9849 11.8656 14.9129 11.6927 14.8408C11.6411 14.8192 11.5894 14.7976 11.5363 14.7753C11.4888 14.7555 11.4413 14.7358 11.3923 14.7154C11.3511 14.6982 11.3098 14.681 11.2674 14.6633C11.0566 14.5786 11.0566 14.5786 10.8363 14.6017C10.7953 14.6194 10.7544 14.6372 10.7122 14.6555C10.6415 14.6856 10.6415 14.6856 10.5694 14.7163C10.5182 14.7388 10.4671 14.7612 10.4144 14.7844C10.3606 14.8075 10.3067 14.8305 10.2513 14.8543C10.1348 14.9043 10.0184 14.9546 9.90209 15.0051C9.62263 15.1265 9.34247 15.2463 9.06237 15.3663C8.96686 15.4073 8.87138 15.4483 8.7759 15.4893C8.21286 15.731 7.64691 15.9656 7.07973 16.1979C6.0393 16.6247 5.00201 17.0585 3.96516 17.4935C3.90528 17.5186 3.84539 17.5437 3.78369 17.5696C3.67112 17.6168 3.55855 17.664 3.44601 17.7113C3.3958 17.7324 3.34559 17.7535 3.29386 17.7752C3.25029 17.7935 3.20673 17.8117 3.16184 17.8306C2.87186 17.9502 2.68558 18.0117 2.36944 17.9823C2.24454 17.8885 2.18241 17.8177 2.11257 17.6813C2.09543 17.3933 2.09206 17.1052 2.08894 16.8168C2.08758 16.7204 2.08548 16.6241 2.08262 16.5278C2.05613 15.6238 2.05613 15.6238 2.27372 15.3751C2.37283 15.2924 2.37283 15.2924 2.47219 15.2226C2.5268 15.1743 2.58119 15.1257 2.63534 15.0768C2.68877 15.0331 2.74249 14.9897 2.79648 14.9467C2.82539 14.9232 2.85429 14.8997 2.88408 14.8755C3.09402 14.7056 3.30705 14.5395 3.52072 14.3742C3.70675 14.2275 3.88852 14.0762 4.07058 13.9249C4.24691 13.7786 4.42468 13.6342 4.60418 13.4916C4.87182 13.2788 5.13529 13.0614 5.39826 12.8432C5.55243 12.7156 5.70742 12.5891 5.86282 12.463C5.72766 12.3309 5.57172 12.2774 5.39806 12.2068C5.36011 12.1911 5.32217 12.1755 5.28308 12.1593C5.15534 12.1067 5.02746 12.0543 4.89957 12.002C4.80923 11.9648 4.7189 11.9275 4.62859 11.8903C4.48223 11.8299 4.33586 11.7696 4.18946 11.7093C3.59837 11.4659 3.00832 11.2202 2.41825 10.9746C2.18013 10.8754 1.94198 10.7764 1.70381 10.6774C1.5934 10.6314 1.48303 10.5853 1.37271 10.5392C1.14832 10.4454 0.923951 10.3521 0.69725 10.2637C0.663623 10.2504 0.629997 10.2371 0.595351 10.2233C0.511563 10.1903 0.427463 10.158 0.343331 10.1258C0.174171 10.0341 0.0983078 9.97168 0.00626901 9.80363C-0.0394858 9.3424 0.176215 8.8188 0.296247 8.37714C0.32106 8.2847 0.345839 8.19225 0.370585 8.09979C0.437157 7.85146 0.504208 7.60325 0.571379 7.35508C0.641243 7.09675 0.71077 6.83833 0.78033 6.57992C0.865688 6.26289 0.951093 5.94588 1.03669 5.62891C1.21228 4.97849 1.38585 4.3276 1.55762 3.67621C1.62772 3.41068 1.6982 3.14525 1.76871 2.87982C1.82407 2.67126 1.87919 2.46265 1.93375 2.25388C1.98457 2.05948 2.03605 1.86525 2.08803 1.67114C2.1068 1.60057 2.12533 1.52993 2.14359 1.45922C2.1684 1.36328 2.19417 1.26758 2.21999 1.17189C2.2411 1.09182 2.2411 1.09182 2.26265 1.01014C2.32536 0.854169 2.38964 0.775339 2.52356 0.671596C2.69308 0.648811 2.69308 0.648811 2.892 0.651996C2.94459 0.652422 2.94459 0.652422 2.99824 0.652857C3.10976 0.653977 3.22119 0.656494 3.33269 0.659052C3.40848 0.660059 3.48427 0.660975 3.56006 0.661796C3.74544 0.664004 3.93078 0.667466 4.11613 0.671596C4.12262 0.640489 4.1291 0.609382 4.13579 0.577332C4.149 0.516204 4.149 0.516204 4.16249 0.45384C4.1754 0.393209 4.1754 0.393209 4.18856 0.331352C4.29845 -0.072241 4.68089 -0.0229493 5.0281 0.0483284ZM4.98948 1.02283C4.77118 1.756 4.56704 2.49189 4.37159 3.23116C4.34296 3.33903 4.31432 3.44689 4.28566 3.55475C4.21094 3.83608 4.13638 4.11743 4.06185 4.3988C3.94308 4.84718 3.82411 5.29551 3.70508 5.74382C3.66243 5.90455 3.61985 6.0653 3.57728 6.22605C3.46121 6.66378 3.34479 7.10131 3.22169 7.53721C3.2042 7.59931 3.1867 7.66142 3.16868 7.7254C3.1379 7.83379 3.10673 7.94207 3.07508 8.05022C3.06218 8.09548 3.04927 8.14074 3.03598 8.18738C3.02491 8.22517 3.01385 8.26297 3.00245 8.30192C2.97617 8.40927 2.97617 8.40927 3.03729 8.54923C3.16946 8.62276 3.16946 8.62276 3.33811 8.688C3.37036 8.70133 3.40261 8.71467 3.43584 8.72841C3.54573 8.77372 3.65594 8.81826 3.76615 8.86283C3.84534 8.89534 3.92451 8.92791 4.00365 8.96054C4.18108 9.03361 4.35862 9.10642 4.53622 9.17908C5.03917 9.38516 5.54056 9.59484 6.04224 9.80385C6.22279 9.87904 6.40338 9.95414 6.58399 10.0292C7.10539 10.2459 7.62673 10.4628 8.14733 10.6813C8.18782 10.6983 8.2283 10.7153 8.27002 10.7328C8.45006 10.8084 8.63006 10.884 8.80996 10.9599C9.20427 11.1258 9.60057 11.2864 9.99807 11.4449C10.0501 11.4656 10.1022 11.4864 10.1559 11.5078C10.2832 11.5586 10.4105 11.6094 10.5378 11.6601C10.5462 10.7324 10.5525 9.80471 10.5564 8.87696C10.5583 8.44616 10.5608 8.01539 10.5649 7.5846C10.5685 7.20901 10.5708 6.83343 10.5716 6.45782C10.5721 6.25904 10.5732 6.0603 10.5758 5.86153C10.5783 5.67417 10.579 5.48687 10.5785 5.2995C10.5786 5.19849 10.5805 5.09749 10.5825 4.9965C10.579 4.56595 10.4886 4.33862 10.1782 4.03339C10.1392 3.98785 10.1002 3.94232 10.06 3.8954C8.77598 2.49279 6.92962 1.54198 5.09222 1.02283C5.05832 1.02283 5.02441 1.02283 4.98948 1.02283ZM12.2845 3.53163C12.2486 3.563 12.2127 3.59437 12.1757 3.62669C12.087 3.70871 12.0064 3.79404 11.9249 3.88286C11.8678 3.9439 11.8678 3.9439 11.8096 4.00616C11.474 4.39763 11.3969 4.69919 11.41 5.21199C11.4102 5.28276 11.4101 5.35354 11.4098 5.42432C11.4097 5.61457 11.4124 5.80468 11.4156 5.9949C11.4185 6.19438 11.4188 6.39387 11.4193 6.59337C11.4208 6.97028 11.4246 7.34714 11.4292 7.72403C11.4344 8.15347 11.4369 8.58291 11.4392 9.01237C11.4441 9.89499 11.4522 10.7776 11.4625 11.6601C12.3951 11.2817 12.3951 11.2817 13.3252 10.8975C13.3775 10.8757 13.4299 10.8539 13.4838 10.8315C13.6513 10.7617 13.8188 10.6919 13.9862 10.6221C14.1055 10.5724 14.2248 10.5228 14.3441 10.4731C14.5924 10.3697 14.8407 10.2663 15.089 10.1628C15.4731 10.0029 15.8572 9.84305 16.2414 9.68329C16.3048 9.65694 16.3681 9.6306 16.4314 9.60426C16.6751 9.50294 16.9187 9.40162 17.1623 9.30031C17.2193 9.27662 17.2763 9.25293 17.3349 9.22853C17.4178 9.19407 17.4178 9.19407 17.5024 9.15892C17.6083 9.11482 17.7143 9.07065 17.8202 9.0264C18.0394 8.93483 18.2588 8.84381 18.4798 8.75623C18.5141 8.74247 18.5484 8.7287 18.5837 8.71452C18.6706 8.67974 18.7577 8.64552 18.8449 8.61137C18.9798 8.5574 18.9798 8.5574 19.0144 8.3987C18.9886 8.27051 18.9588 8.14755 18.924 8.02167C18.9137 7.98312 18.9034 7.94458 18.8928 7.90486C18.8583 7.77602 18.8231 7.64735 18.788 7.51866C18.7635 7.42759 18.739 7.33651 18.7146 7.24542C18.6488 7.00084 18.5825 6.75639 18.5161 6.51197C18.4478 6.26006 18.3799 6.00803 18.312 5.75601C18.2035 5.35367 18.0948 4.95139 17.9859 4.54916C17.8608 4.08729 17.7365 3.62523 17.6127 3.16303C17.5505 2.93085 17.4882 2.69869 17.4259 2.46653C17.3933 2.34475 17.3606 2.22297 17.328 2.10118C17.2836 1.93522 17.2389 1.76929 17.1942 1.60338C17.1814 1.55535 17.1686 1.50733 17.1553 1.45785C17.1437 1.41468 17.132 1.37152 17.12 1.32704C17.11 1.28978 17.1 1.25251 17.0897 1.21411C17.064 1.11938 17.064 1.11938 17.0108 1.02283C15.4099 1.02283 13.4253 2.52959 12.2845 3.53163ZM3.08867 1.57476C3.05745 1.69296 3.02623 1.81116 2.99406 1.93294C2.86044 2.43877 2.72674 2.94458 2.59301 3.45038C2.56607 3.55227 2.53913 3.65417 2.5122 3.75607C2.22101 4.85764 1.9296 5.95914 1.63416 7.05963C1.6238 7.09824 1.61344 7.13684 1.60276 7.17662C1.50596 7.5373 1.40902 7.89794 1.31169 8.25848C1.26879 8.41751 1.22603 8.57657 1.18324 8.73563C1.16789 8.79227 1.15253 8.84892 1.13671 8.90729C1.123 8.95833 1.10928 9.00937 1.09515 9.06195C1.0832 9.1062 1.07125 9.15045 1.05894 9.19603C1.02986 9.30005 1.02986 9.30005 1.03373 9.40222C2.09464 9.8473 3.15648 10.2902 4.21888 10.7319C5.01508 11.0629 5.81112 11.3943 6.60627 11.7277C7.47678 12.0926 8.34851 12.4548 9.22015 12.8171C9.30647 12.853 9.30647 12.853 9.39454 12.8897C9.50633 12.9361 9.61817 12.9825 9.73005 13.0287C9.95768 13.123 10.1848 13.2176 10.4094 13.3185C10.4426 13.3332 10.4758 13.3478 10.51 13.363C10.5924 13.3997 10.6744 13.4373 10.7564 13.475C11.0555 13.5634 11.3141 13.4322 11.5877 13.3156C11.6253 13.2999 11.6629 13.2841 11.7016 13.268C11.8276 13.2153 11.9533 13.1621 12.079 13.109C12.1694 13.071 12.2599 13.0331 12.3503 12.9953C12.5476 12.9127 12.7448 12.8299 12.942 12.7471C13.2735 12.6079 13.6055 12.4698 13.9377 12.3318C13.9951 12.308 14.0525 12.2841 14.1117 12.2595C14.229 12.2108 14.3462 12.1621 14.4635 12.1134C15.3896 11.7287 16.3151 11.3425 17.2399 10.9549C18.481 10.4347 19.7239 9.91867 20.9666 9.40222C20.8286 8.77486 20.6735 8.15358 20.506 7.53316C20.4816 7.44219 20.4572 7.35121 20.4328 7.26023C20.3815 7.06897 20.3301 6.87774 20.2786 6.68653C20.1986 6.38944 20.1188 6.09229 20.039 5.79514C19.9597 5.49937 19.8803 5.20361 19.8008 4.90787C19.59 4.12326 19.3804 3.33835 19.1717 2.5532C19.1442 2.44971 19.1167 2.34622 19.0891 2.24273C19.0299 2.02008 18.9708 1.79743 18.9116 1.57476C18.6573 1.57476 18.403 1.57476 18.141 1.57476C18.225 2.08298 18.3581 2.57523 18.4924 3.0724C18.5174 3.16555 18.5424 3.25871 18.5674 3.35188C18.6333 3.5975 18.6994 3.84307 18.7656 4.08861C18.8308 4.33049 18.8957 4.57242 18.9607 4.81435C18.9865 4.91033 19.0123 5.0063 19.0381 5.10228C19.0896 5.29388 19.1409 5.48549 19.1923 5.67713C19.3101 6.11654 19.4287 6.55571 19.5504 6.99412C19.6044 7.18885 19.6579 7.38371 19.7114 7.57858C19.7368 7.67058 19.7624 7.76252 19.7883 7.85439C19.824 7.98121 19.8589 8.10823 19.8937 8.23532C19.9043 8.27228 19.915 8.30924 19.926 8.34732C19.9888 8.58139 20.0002 8.76563 19.9391 9.00081C19.837 9.14191 19.708 9.19408 19.5474 9.26066C19.4743 9.29129 19.4743 9.29129 19.3997 9.32254C19.3464 9.34444 19.2931 9.36633 19.2381 9.38889C19.1821 9.41225 19.126 9.43561 19.0683 9.45968C18.9146 9.52364 18.7608 9.58728 18.607 9.65078C18.4439 9.71815 18.2811 9.78595 18.1183 9.85371C17.8478 9.96617 17.5773 10.0784 17.3067 10.1904C16.8809 10.3668 16.4553 10.5437 16.0298 10.7209C15.7473 10.8384 15.4648 10.9559 15.1822 11.0732C14.5988 11.3153 14.0161 11.5589 13.4344 11.805C13.2348 11.8894 13.0351 11.9737 12.8353 12.0579C12.6751 12.1255 12.5148 12.1933 12.3548 12.2615C12.178 12.3367 12.001 12.4115 11.8239 12.4861C11.7717 12.5085 11.7194 12.5309 11.6656 12.554C11.0575 12.8089 11.0575 12.8089 10.723 12.7151C10.6306 12.6758 10.6306 12.6758 10.5364 12.6356C10.5015 12.6211 10.4665 12.6065 10.4306 12.5914C10.3129 12.5421 10.1958 12.4915 10.0786 12.441C9.99316 12.4049 9.90763 12.3689 9.82208 12.3329C9.63289 12.2533 9.44393 12.1732 9.25509 12.0928C8.92862 11.9539 8.60136 11.8169 8.27396 11.6801C8.15605 11.6309 8.03814 11.5816 7.92024 11.5324C7.86076 11.5075 7.80129 11.4827 7.74001 11.4571C7.49527 11.3548 7.25064 11.2522 7.00601 11.1496C6.08428 10.7632 5.16144 10.3793 4.23824 9.99619C4.02702 9.90854 3.81595 9.82056 3.60498 9.73233C3.38899 9.64206 3.1724 9.55333 2.95544 9.46528C2.84686 9.42063 2.73829 9.37595 2.62972 9.33127C2.57915 9.31107 2.52859 9.29087 2.47649 9.27006C2.43014 9.25083 2.38379 9.2316 2.33604 9.21178C2.29523 9.19521 2.25442 9.17863 2.21237 9.16155C2.08919 9.08702 2.06277 9.03095 2.00983 8.90046C1.99942 8.57825 2.10418 8.25126 2.18784 7.94247C2.20715 7.86966 2.20715 7.86966 2.22686 7.79537C2.26933 7.63556 2.31226 7.47588 2.35519 7.31619C2.38526 7.20346 2.4153 7.09071 2.44531 6.97796C2.52451 6.68077 2.6041 6.38368 2.68377 6.0866C2.74759 5.84838 2.81114 5.6101 2.87467 5.37181C3.38068 3.47388 3.38068 3.47388 3.58471 2.733C3.59474 2.69655 3.60477 2.66009 3.6151 2.62253C3.65964 2.46077 3.70441 2.29909 3.7496 2.13751C3.76443 2.08396 3.77926 2.0304 3.79453 1.97523C3.8072 1.92998 3.81986 1.88473 3.8329 1.83811C3.86498 1.72012 3.86498 1.72012 3.85927 1.57476C3.60497 1.57476 3.35067 1.57476 3.08867 1.57476ZM6.63984 13.0557C6.58971 13.0968 6.53958 13.1379 6.48793 13.1803C6.43366 13.2255 6.37941 13.2707 6.32518 13.3159C6.24116 13.3856 6.15709 13.4552 6.07301 13.5247C6.01606 13.5719 5.95915 13.619 5.90228 13.6663C5.69694 13.8364 5.48769 14.0011 5.27665 14.1644C5.09062 14.311 4.90884 14.4624 4.72679 14.6137C4.5057 14.7972 4.2816 14.9768 4.05653 15.1556C3.85898 15.3143 3.66404 15.476 3.46955 15.6383C3.24977 15.8211 3.24977 15.8211 3.12138 15.8888C2.99908 16.0146 3.0163 16.1232 3.01923 16.2917C3.02095 16.3311 3.02268 16.3706 3.02445 16.4112C3.02538 16.4512 3.0263 16.4912 3.02726 16.5324C3.02968 16.6311 3.03336 16.7297 3.03729 16.8283C3.21976 16.7977 3.37764 16.7502 3.54746 16.6786C3.59701 16.6578 3.64655 16.6371 3.6976 16.6157C3.75122 16.593 3.80483 16.5702 3.86007 16.5468C3.91676 16.523 3.97345 16.4992 4.03186 16.4747C4.18631 16.4097 4.34067 16.3446 4.49498 16.2794C4.65658 16.2112 4.8183 16.1432 4.98001 16.0752C5.21277 15.9774 5.44551 15.8794 5.67819 15.7814C6.24618 15.5421 6.81477 15.3041 7.38343 15.0663C7.63348 14.9618 7.88348 14.8571 8.13348 14.7524C8.22555 14.7139 8.31762 14.6754 8.40969 14.6368C8.45495 14.6179 8.50021 14.5989 8.54685 14.5794C8.95363 14.4091 9.36041 14.2389 9.76719 14.0686C9.62157 13.9164 9.48224 13.8544 9.28396 13.7748C9.25144 13.7616 9.21891 13.7484 9.1854 13.7348C9.0798 13.692 8.97399 13.6498 8.86816 13.6076C8.79572 13.5784 8.72329 13.5492 8.65088 13.5199C8.54254 13.4762 8.4342 13.4325 8.32578 13.3889C8.11767 13.3053 7.91023 13.2204 7.70343 13.1337C7.6585 13.1149 7.61357 13.096 7.56727 13.0767C7.48619 13.0426 7.40517 13.0084 7.32425 12.974C7.00486 12.8407 6.90458 12.8366 6.63984 13.0557ZM14.694 12.9641C14.6407 12.9859 14.5874 13.0077 14.5325 13.0301C14.475 13.0539 14.4175 13.0778 14.3583 13.1023C14.2993 13.1266 14.2404 13.1508 14.1796 13.1758C14.0549 13.2272 13.9303 13.2788 13.8057 13.3305C13.6459 13.3968 13.4858 13.4626 13.3256 13.5282C13.1731 13.5908 13.0208 13.6539 12.8685 13.717C12.7819 13.7524 12.7819 13.7524 12.6936 13.7886C12.6407 13.8107 12.5877 13.8328 12.5331 13.8555C12.4628 13.8846 12.4628 13.8846 12.391 13.9143C12.2764 13.9594 12.2764 13.9594 12.2331 14.0686C12.2628 14.081 12.2924 14.0934 12.323 14.1062C12.4147 14.1446 12.5065 14.183 12.5983 14.2214C12.7093 14.2679 12.8202 14.3144 12.9312 14.3608C13.215 14.4796 13.4987 14.5983 13.7824 14.7171C13.9488 14.7868 14.1152 14.8564 14.2816 14.9261C14.3155 14.9403 14.3493 14.9544 14.3842 14.969C14.8608 15.1685 15.3375 15.368 15.8142 15.5673C16.0082 15.6485 16.2023 15.7297 16.3964 15.8109C16.5507 15.8754 16.705 15.94 16.8593 16.0045C17.0324 16.0769 17.2054 16.1493 17.3785 16.2216C17.432 16.244 17.4854 16.2663 17.5406 16.2894C17.7761 16.388 18.0113 16.4872 18.2454 16.5891C18.2839 16.6059 18.3224 16.6226 18.3621 16.6398C18.4314 16.6701 18.5007 16.7006 18.5699 16.7314C18.7117 16.7932 18.8054 16.8283 18.963 16.8283C19.0461 16.3396 19.0461 16.3396 18.9015 15.8831C18.7351 15.7085 18.5388 15.5722 18.3382 15.4375C18.2052 15.3469 18.0822 15.246 17.958 15.1442C17.9127 15.1083 17.8674 15.0724 17.8208 15.0355C17.6636 14.9095 17.509 14.7808 17.3544 14.6519C17.1265 14.4621 16.8944 14.279 16.6576 14.0999C16.3932 13.8999 16.1386 13.6911 15.887 13.4759C15.3622 12.9532 15.3622 12.9532 14.694 12.9641Z" fill="#636363"/>
</svg>
