<svg width="16" height="20" viewBox="0 0 16 20" fill="none" xmlns="http://www.w3.org/2000/svg">
<path d="M12.7334 14.9996C12.4656 14.3156 12.2257 13.3229 11.3334 12.7496C9.93343 11.8496 8.53343 11.3996 8.53343 10.0496C8.53343 8.69961 8.06676 5.99961 8.06676 5.99961L8.71543 5.34081C10.3012 6.02211 11.8001 4.09251 11.8001 2.84961C11.8001 2.25287 11.5543 1.68058 11.1167 1.25862C10.6791 0.836662 10.0856 0.599609 9.46676 0.599609C8.84793 0.599609 8.25443 0.836662 7.81685 1.25862C7.37926 1.68058 7.13343 2.25287 7.13343 2.84961C7.13343 3.74961 6.38676 4.28961 5.26676 4.64961C3.86676 5.09961 2.0001 5.99961 2.0001 10.4996C2.0001 14.0996 3.7109 15.2993 4.33343 15.8996C1.34676 15.8996 0.600098 17.6996 0.600098 18.5996H12.7334C13.2285 18.5996 13.7033 18.41 14.0534 18.0724C14.4034 17.7348 14.6001 17.277 14.6001 16.7996C14.6001 16.3222 14.4034 15.8644 14.0534 15.5268C13.7033 15.1893 13.2285 14.9996 12.7334 14.9996ZM12.7334 14.9996C5.52063 14.9996 4.8561 10.7993 5.26676 8.69961" stroke="#636363" stroke-width="1.2" stroke-linecap="round" stroke-linejoin="round"/>
</svg>
