<svg width="25" height="18" viewBox="0 0 25 18" fill="none" xmlns="http://www.w3.org/2000/svg">
<path d="M15.9741 18C13.4603 18 11.331 17.1276 9.5862 15.3828C7.8416 13.6382 6.9693 11.5089 6.9693 8.9949C6.9693 6.4999 7.8416 4.377 9.5862 2.6262C11.331 0.875399 13.4603 0 15.9741 0C18.4693 0 20.5922 0.875399 22.3428 2.6262C24.0936 4.377 24.969 6.4999 24.969 8.9949C24.969 11.5089 24.0936 13.6382 22.3428 15.3828C20.5922 17.1276 18.4693 18 15.9741 18ZM15.969 16.2C17.969 16.2 19.669 15.5 21.069 14.1C22.469 12.7 23.169 11 23.169 9C23.169 7 22.469 5.3 21.069 3.9C19.669 2.5 17.969 1.8 15.969 1.8C13.969 1.8 12.269 2.5 10.869 3.9C9.469 5.3 8.769 7 8.769 9C8.769 11 9.469 12.7 10.869 14.1C12.269 15.5 13.969 16.2 15.969 16.2ZM18.8145 13.1583L20.0976 11.8755L16.869 8.6469V4.3845H15.069V9.3831L18.8145 13.1583ZM1.2 5.1V3.3H5.7693V5.1H1.2ZM0 9.9V8.1H5.7693V9.9H0ZM1.2 14.7V12.9H5.7693V14.7H1.2Z" fill="#636363"/>
</svg>
